<svg id="Camada_1" data-name="Camada 1" xmlns="http://www.w3.org/2000/svg" viewBox="0 0 1998.71 659.57"><defs><style>.cls-1{fill:#fff;}</style></defs><path class="cls-1" d="M-475.43,1123.56c-182.14,0-329.79,147.65-329.79,329.78s147.65,329.78,329.79,329.78,329.78-147.65,329.78-329.78S-293.3,1123.56-475.43,1123.56ZM-552,1397s81,156.54,96.33,328.39l-1.09,2.2c-88.67,0-243-25.18-255-249.58l54.73,31.74-59.11-100.7s-2.19-111.66,31.74-190.47c0,0,388.06,173.68,257.24,487.11C-427.19,1705.71-426.09,1553.56-552,1397Zm305.41,147.78-56.93,27.37,51.45,1.09s-3.28,119.32-157.62,146.68c0,0,31.17-50.22,27.36-147.77,0,0,30.65-50.36,97.42-105.09,0,0-53.09,31.2-98.51,76.63,0,0-8.46-37.22-17.37-65.68,0,0,60.06-58,164-72.25C-236.72,1405.78-228,1466-246.57,1544.8Z" transform="translate(805.22 -1123.56)"/><path class="cls-1" d="M-33.51,1483.91q-29.58-15.45-46.35-42.9t-16.77-62q0-34.53,16.77-62t46.35-42.9q29.59-15.45,66.74-15.45T100,1274.16q29.6,15.45,46.36,42.9t16.77,62q0,34.51-16.77,62T100,1483.91q-29.58,15.45-66.74,15.46T-33.51,1483.91Zm92.88-54.41a50.63,50.63,0,0,0,18.58-20q6.9-13,6.9-30.41T78,1348.62a50.7,50.7,0,0,0-18.58-20,49.48,49.48,0,0,0-26.14-7.07,49.44,49.44,0,0,0-26.13,7.07,50.56,50.56,0,0,0-18.58,20q-6.9,13-6.9,30.42t6.9,30.41a50.49,50.49,0,0,0,18.58,20,49.35,49.35,0,0,0,26.13,7.07A49.39,49.39,0,0,0,59.37,1429.5Z" transform="translate(805.22 -1123.56)"/><path class="cls-1" d="M318,1311v65.75a113.65,113.65,0,0,0-16.44-1.31q-38.14,0-38.14,38.79v79.89h-74.3V1314.27h70.68v19.4Q279.47,1311,318,1311Z" transform="translate(805.22 -1123.56)"/><path class="cls-1" d="M538.22,1314.27v144q0,51.29-28.44,77.1t-81,25.8a210.05,210.05,0,0,1-50.3-5.75q-23.34-5.76-39.78-16.6l25-50.63q10.52,7.89,26.63,12.82a105.35,105.35,0,0,0,30.9,4.93q22.35,0,32.55-9.53t10.19-28v-3.29q-16.77,19.08-49.64,19.07a89.3,89.3,0,0,1-42.91-10.68A81,81,0,0,1,339.65,1443q-11.83-19.89-11.84-45.53t11.84-45.37a81.28,81.28,0,0,1,31.72-30.41A89.31,89.31,0,0,1,414.28,1311q36.81,0,53.26,23.67v-20.38Zm-82.35,104q8.7-8,8.71-20.87t-8.71-20.72q-8.72-7.89-21.87-7.89-13.49,0-22.19,7.89t-8.71,20.72q0,12.81,8.88,20.87t22,8.06Q447.16,1426.38,455.87,1418.32Z" transform="translate(805.22 -1123.56)"/><path class="cls-1" d="M724,1332.19q25,21.19,25,65.26v96.65h-69v-23.67q-12.81,27-51,27-21.37,0-36.33-7.39T570,1469.94a53.49,53.49,0,0,1-7.73-28.44q0-26.62,20.39-40.44t61.81-13.81h29.91q-3.62-21-33.86-21a85.19,85.19,0,0,0-24.66,3.78,69.6,69.6,0,0,0-21.37,10.36l-23.67-49q15.45-9.52,37.32-15a180.56,180.56,0,0,1,43.56-5.42Q699,1311,724,1332.19Zm-58.52,116.22q6.24-4.28,9.2-12.83v-12.49H656.25q-22.68,0-22.68,15.12a13.08,13.08,0,0,0,4.76,10.36q4.77,4.11,13,4.11A24.46,24.46,0,0,0,665.46,1448.41Z" transform="translate(805.22 -1123.56)"/><path class="cls-1" d="M963.19,1331q20.22,20.07,20.22,60.5V1494.1h-74.3v-89.75q0-30.9-22-30.9-12.5,0-20.22,8.71t-7.72,27.45v84.49H784.83V1314.27h70.69V1332a68.59,68.59,0,0,1,24.33-15.78,83.49,83.49,0,0,1,29.92-5.26Q943,1311,963.19,1331Z" transform="translate(805.22 -1123.56)"/><path class="cls-1" d="M1168.51,1332.19q25,21.19,25,65.26v96.65h-69v-23.67q-12.81,27-51,27-21.37,0-36.33-7.39t-22.68-20.06a53.49,53.49,0,0,1-7.73-28.44q0-26.62,20.39-40.44t61.81-13.81h29.91q-3.61-21-33.86-21a85.19,85.19,0,0,0-24.66,3.78,69.6,69.6,0,0,0-21.37,10.36l-23.67-49q15.45-9.52,37.32-15a180.56,180.56,0,0,1,43.56-5.42Q1143.52,1311,1168.51,1332.19ZM1110,1448.41q6.24-4.28,9.2-12.83v-12.49h-18.41q-22.68,0-22.68,15.12a13.08,13.08,0,0,0,4.76,10.36q4.77,4.11,13,4.11A24.46,24.46,0,0,0,1110,1448.41Z" transform="translate(805.22 -1123.56)"/><path class="cls-1" d="M659.76,1601.08a25.57,25.57,0,0,1,5.16,16.08q0,14-11.54,21.63T620,1646.46h-59.8V1540.22H617q21.24,0,32.1,7.58T659.91,1568a24.59,24.59,0,0,1-3.72,13.36,26.74,26.74,0,0,1-11,9.56A32,32,0,0,1,659.76,1601.08Zm-64.36-35.82V1581h16.7q11.68,0,11.69-7.89t-11.69-7.89Zm33.39,47.81q0-8.35-11.83-8.35H595.4v16.69H617Q628.8,1621.41,628.79,1613.07Z" transform="translate(805.22 -1123.56)"/><path class="cls-1" d="M678.65,1551.83a16.63,16.63,0,0,1,0-25q5.7-4.92,15-4.93,9.4,0,15,4.7a15.14,15.14,0,0,1,5.61,12.15,16.71,16.71,0,0,1-5.61,13q-5.62,5.08-15,5.09T678.65,1551.83Zm-2.2,11.61h34.3v83h-34.3Z" transform="translate(805.22 -1123.56)"/><path class="cls-1" d="M745,1642.43a42.66,42.66,0,0,1-17.22-15.32,42.85,42.85,0,0,1,0-44.47A42.1,42.1,0,0,1,745,1567.38a59.48,59.48,0,0,1,49.79,0,41.59,41.59,0,0,1,17.15,15.26,43.33,43.33,0,0,1,0,44.47,42.14,42.14,0,0,1-17.15,15.32,58.7,58.7,0,0,1-49.79,0Zm34.53-25.49q3.79-4.34,3.8-12.07t-3.8-12a13.22,13.22,0,0,0-19.42,0q-3.8,4.26-3.8,12t3.8,12.07a13.07,13.07,0,0,0,19.42,0Z" transform="translate(805.22 -1123.56)"/><path class="cls-1" d="M890,1643.57q-7.75,4.41-21.1,4.4-17.46,0-26.87-8.42t-9.41-25.27V1593H821.24v-25h11.38v-23.22h34.31V1568h17v25h-17v21a8.35,8.35,0,0,0,2,5.92,6.72,6.72,0,0,0,5.16,2.12,13.48,13.48,0,0,0,7.74-2.27Z" transform="translate(805.22 -1123.56)"/><path class="cls-1" d="M984.25,1612.92H926.57a14,14,0,0,0,6.07,7.2,20.65,20.65,0,0,0,10.63,2.51,26.83,26.83,0,0,0,9.18-1.37,32.42,32.42,0,0,0,8.12-4.7l17.91,18.06Q966.33,1648,942.2,1648q-15,0-26.41-5.54a41.93,41.93,0,0,1-17.6-15.4,42.95,42.95,0,0,1-.08-44.39A42,42,0,0,1,915,1567.38a55.5,55.5,0,0,1,47-.45,39.46,39.46,0,0,1,16.54,14.72q6.15,9.72,6.15,23.22Q984.7,1605.64,984.25,1612.92Zm-53.73-24.74a13.67,13.67,0,0,0-4.56,8.19h26.72a13.94,13.94,0,0,0-4.56-8.12,13.16,13.16,0,0,0-8.8-3A13.36,13.36,0,0,0,930.52,1588.18Z" transform="translate(805.22 -1123.56)"/><path class="cls-1" d="M1014.83,1642.51a42.11,42.11,0,0,1-17.45-15.33,42.51,42.51,0,0,1,0-44.54,42.31,42.31,0,0,1,17.45-15.26,56.75,56.75,0,0,1,25.27-5.46q15.18,0,26,6.52a33.94,33.94,0,0,1,14.88,18.07l-26.56,13q-4.86-10.93-14.42-10.93a13.33,13.33,0,0,0-10.1,4.25q-4,4.26-4,12,0,7.89,4,12.14a13.3,13.3,0,0,0,10.1,4.25q9.55,0,14.42-10.92l26.56,13.05a33.88,33.88,0,0,1-14.88,18.06q-10.77,6.52-26,6.52A56.75,56.75,0,0,1,1014.83,1642.51Z" transform="translate(805.22 -1123.56)"/><path class="cls-1" d="M1171.16,1571.18q9.33,9.25,9.33,27.92v47.36h-34.3V1605q0-14.26-10.17-14.26a11.86,11.86,0,0,0-9.33,4q-3.57,4-3.57,12.67v39h-34.3V1533.84h34.3v36.27q9.56-8.19,23.37-8.19Q1161.82,1561.92,1171.16,1571.18Z" transform="translate(805.22 -1123.56)"/></svg>