<?xml version="1.0" encoding="utf-8"?>
<!-- Generator: Adobe Illustrator 24.3.0, SVG Export Plug-In . SVG Version: 6.00 Build 0)  -->
<svg version="1.1" id="Camada_1" xmlns="http://www.w3.org/2000/svg" xmlns:xlink="http://www.w3.org/1999/xlink" x="0px" y="0px"
	 viewBox="0 0 1001.2 810.4" style="enable-background:new 0 0 1001.2 810.4;" xml:space="preserve">
<style type="text/css">
	.st0{fill:#416957;}
	.st1{fill:#4AB27B;}
	.st2{fill:url(#SVGID_1_);}
	.st3{fill:url(#SVGID_2_);}
	.st4{fill:url(#SVGID_3_);}
	.st5{fill:url(#SVGID_4_);}
	.st6{fill:url(#SVGID_5_);}
	.st7{fill:url(#SVGID_6_);}
	.st8{fill:url(#SVGID_7_);}
	.st9{fill:url(#SVGID_8_);}
	.st10{fill:url(#SVGID_9_);}
	.st11{fill:url(#SVGID_10_);}
	.st12{fill:url(#SVGID_11_);}
	.st13{fill:url(#SVGID_12_);}
	.st14{fill:url(#SVGID_13_);}
	.st15{fill:url(#SVGID_14_);}
	.st16{fill:url(#SVGID_15_);}
	.st17{fill:url(#SVGID_16_);}
	.st18{fill:url(#SVGID_17_);}
	.st19{fill:url(#SVGID_18_);}
	.st20{fill:url(#SVGID_19_);}
	.st21{fill:url(#SVGID_20_);}
	.st22{fill:url(#SVGID_21_);}
	.st23{fill:url(#SVGID_22_);}
	.st24{fill:url(#SVGID_23_);}
	.st25{fill:url(#SVGID_24_);}
	.st26{fill:url(#SVGID_25_);}
	.st27{fill:url(#SVGID_26_);}
	.st28{fill:url(#SVGID_27_);}
	.st29{fill:url(#SVGID_28_);}
	.st30{fill:url(#SVGID_29_);}
	.st31{fill:url(#SVGID_30_);}
	.st32{fill:url(#SVGID_31_);}
	.st33{fill:url(#SVGID_32_);}
	.st34{fill:url(#SVGID_33_);}
	.st35{fill:url(#SVGID_34_);}
	.st36{fill:url(#SVGID_35_);}
	.st37{fill:url(#SVGID_36_);}
	.st38{fill:#4A4A49;}
	.st39{font-family:'Montserrat-ExtraBold';}
	.st40{font-size:23.1089px;}
	.st41{font-family:'Montserrat-Bold';}
	.st42{font-size:95.7342px;}
	.st43{font-family:'Montserrat-ExtraBoldItalic';}
	.st44{font-size:95.5306px;}
	.st45{fill:#FFFFFF;}
</style>
<g>
	<circle class="st0" cx="459.2" cy="372" r="187.4"/>
	<g>
		<g>
			<path class="st1" d="M469.2,527.3c-50.4,0-138.1-14.3-145-141.8l31.1,18l-33.6-57.2c0,0-1.2-63.5,18-108.2
				c0,0,220.5,98.7,146.2,276.8c0,0,0.6-86.5-70.9-175.4c0,0,46,89,54.7,186.6"/>
			<path class="st1" d="M501,385.4c0,0,34.1-33,93.2-41.1c0,0,5,34.2-5.6,79l-32.4,15.6l29.2,0.6c0,0-1.9,67.8-89.6,83.4
				c0,0,17.7-28.5,15.6-84c0,0,17.4-28.6,55.4-59.7c0,0-30.2,17.7-56,43.5C510.9,422.7,506.1,401.6,501,385.4z"/>
		</g>
	</g>
</g>
<g>
	<g>
		
			<linearGradient id="SVGID_1_" gradientUnits="userSpaceOnUse" x1="516.3652" y1="436.6587" x2="542.7471" y2="622.0641" gradientTransform="matrix(-0.1028 -0.9947 0.9947 -0.1028 -16.6743 688.0907)">
			<stop  offset="1.017010e-03" style="stop-color:#368865"/>
			<stop  offset="1" style="stop-color:#2BA671"/>
		</linearGradient>
		<path class="st2" d="M528.9,81.2c-29.1-13.1-62-18.9-96-15.3c-34.1,3.5-65,15.9-90.9,34.7c-8.2,5.9-15.9,12.5-22.9,19.6l30.6,24.9
			c4.8-4.6,9.9-8.8,15.3-12.8c20.5-14.8,45-24.7,71.9-27.4c26.9-2.8,52.9,1.8,76,12.1l-12.2,27.2l65.6-25.1l-25.1-65.6L528.9,81.2z"
			/>
		<g>
			<g>
				<g>
					
						<image style="overflow:visible;opacity:0.45;" width="164" height="164" xlink:href="2CBA1D09DC686D2B.png"  transform="matrix(1 0 0 1 226.5239 80.9911)">
					</image>
					<g>
						
							<linearGradient id="SVGID_2_" gradientUnits="userSpaceOnUse" x1="567.7678" y1="460.2096" x2="476.8969" y2="343.6894" gradientTransform="matrix(-0.1028 -0.9947 0.9947 -0.1028 -16.6743 688.0907)">
							<stop  offset="1.017010e-03" style="stop-color:#368865"/>
							<stop  offset="1" style="stop-color:#2BA671"/>
						</linearGradient>
						<path class="st3" d="M293.7,91c-35.2,3.6-60.8,35.3-57.1,70.8s35.2,61.2,70.4,57.6s60.8-35.3,57.1-70.8
							C360.4,113.2,328.9,87.4,293.7,91z"/>
					</g>
				</g>
				
					<linearGradient id="SVGID_3_" gradientUnits="userSpaceOnUse" x1="472.9841" y1="345.5841" x2="525.829" y2="398.4291" gradientTransform="matrix(-0.1028 -0.9947 0.9947 -0.1028 -16.6743 688.0907)">
					<stop  offset="0" style="stop-color:#4A4A49"/>
					<stop  offset="1" style="stop-color:#5C5C5C"/>
				</linearGradient>
				<path class="st4" d="M294.5,98.7c-31,3.2-53.5,31.1-50.3,62.3s31,53.9,62,50.7c31-3.2,53.5-31.1,50.3-62.3
					S325.5,95.5,294.5,98.7z"/>
			</g>
		</g>
	</g>
</g>
<g>
	<g>
		
			<linearGradient id="SVGID_4_" gradientUnits="userSpaceOnUse" x1="382.2152" y1="533.3098" x2="408.597" y2="718.7153" gradientTransform="matrix(-0.9778 -0.2096 0.2096 -0.9778 461.391 988.658)">
			<stop  offset="1.017010e-03" style="stop-color:#368865"/>
			<stop  offset="1" style="stop-color:#2BA671"/>
		</linearGradient>
		<path class="st5" d="M204.3,215.9c-21.4,23.7-37.1,53.1-44.3,86.6c-7.2,33.5-5,66.8,4.9,97.2c3.1,9.6,7,18.9,11.6,27.9l33.2-21.4
			c-2.9-6-5.3-12.2-7.4-18.5c-7.8-24-9.6-50.4-3.9-76.9c5.7-26.5,18.1-49.8,35-68.5l22.1,20l-3.6-70.1l-70.1,3.6L204.3,215.9z"/>
		<g>
			<g>
				<g>
					
						<image style="overflow:visible;opacity:0.45;" width="164" height="163" xlink:href="2CBA1D09DC686D29.png"  transform="matrix(1 0 0 1 130.5239 382.9911)">
					</image>
					<g>
						
							<linearGradient id="SVGID_5_" gradientUnits="userSpaceOnUse" x1="433.6177" y1="556.8607" x2="342.7468" y2="440.3405" gradientTransform="matrix(-0.9778 -0.2096 0.2096 -0.9778 461.391 988.658)">
							<stop  offset="1.017010e-03" style="stop-color:#368865"/>
							<stop  offset="1" style="stop-color:#2BA671"/>
						</linearGradient>
						<path class="st6" d="M140.9,442.6c-7.4,34.6,14.8,68.7,49.7,76.2c34.8,7.5,69.1-14.5,76.5-49.1c7.4-34.6-14.8-68.7-49.7-76.2
							S148.3,408,140.9,442.6z"/>
					</g>
				</g>
				
					<linearGradient id="SVGID_6_" gradientUnits="userSpaceOnUse" x1="338.834" y1="442.2352" x2="391.679" y2="495.0802" gradientTransform="matrix(-0.9778 -0.2096 0.2096 -0.9778 461.391 988.658)">
					<stop  offset="0" style="stop-color:#4A4A49"/>
					<stop  offset="1" style="stop-color:#5C5C5C"/>
				</linearGradient>
				<path class="st7" d="M148.4,444.2c-6.5,30.5,13,60.5,43.7,67.1c30.7,6.6,60.8-12.8,67.4-43.3c6.5-30.5-13-60.5-43.7-67.1
					S155,413.8,148.4,444.2z"/>
			</g>
		</g>
	</g>
</g>
<g>
	<g>
		
			<linearGradient id="SVGID_7_" gradientUnits="userSpaceOnUse" x1="248.8399" y1="435.5924" x2="275.2217" y2="620.9978" gradientTransform="matrix(-0.5015 0.8651 -0.8651 -0.5015 894.9778 626.8713)">
			<stop  offset="1.017010e-03" style="stop-color:#368865"/>
			<stop  offset="1" style="stop-color:#2BA671"/>
		</linearGradient>
		<path class="st8" d="M232,566.2c15.9,27.7,39.1,51.7,68.7,68.9c29.6,17.2,62,25.4,93.9,25.4c10.1,0,20.2-0.8,30.1-2.4l-10.2-38.2
			c-6.6,0.9-13.2,1.3-19.9,1.3c-25.3,0-50.9-6.5-74.3-20.1c-23.4-13.6-41.8-32.6-54.3-54.5l25.8-14.9l-67.8-18.3l-18.3,67.8
			L232,566.2z"/>
		<g>
			<g>
				<g>
					
						<image style="overflow:visible;opacity:0.45;" width="164" height="164" xlink:href="2CBA1D09DC686D2F.png"  transform="matrix(1 0 0 1 386.5239 566.9911)">
					</image>
					<g>
						
							<linearGradient id="SVGID_8_" gradientUnits="userSpaceOnUse" x1="300.2424" y1="459.1432" x2="209.3715" y2="342.623" gradientTransform="matrix(-0.5015 0.8651 -0.8651 -0.5015 894.9778 626.8713)">
							<stop  offset="1.017010e-03" style="stop-color:#368865"/>
							<stop  offset="1" style="stop-color:#2BA671"/>
						</linearGradient>
						<path class="st9" d="M428.1,696.6c30.6,17.8,69.9,7.2,87.8-23.7c17.9-30.8,7.5-70.2-23.1-88s-69.9-7.2-87.8,23.7
							C387.1,639.4,397.4,678.8,428.1,696.6z"/>
					</g>
				</g>
				
					<linearGradient id="SVGID_9_" gradientUnits="userSpaceOnUse" x1="205.4587" y1="344.5178" x2="258.3037" y2="397.3628" gradientTransform="matrix(-0.5015 0.8651 -0.8651 -0.5015 894.9778 626.8713)">
					<stop  offset="0" style="stop-color:#4A4A49"/>
					<stop  offset="1" style="stop-color:#5C5C5C"/>
				</linearGradient>
				<path class="st10" d="M431.9,689.9c27,15.6,61.6,6.3,77.3-20.8c15.7-27.1,6.6-61.8-20.3-77.5s-61.6-6.3-77.3,20.8
					S405,674.3,431.9,689.9z"/>
			</g>
		</g>
	</g>
</g>
<g>
	<g>
		
			<linearGradient id="SVGID_10_" gradientUnits="userSpaceOnUse" x1="300.5594" y1="278.5486" x2="326.9413" y2="463.954" gradientTransform="matrix(0.6678 0.7443 -0.7443 0.6678 684.8839 102.7075)">
			<stop  offset="1.017010e-03" style="stop-color:#368865"/>
			<stop  offset="1" style="stop-color:#2BA671"/>
		</linearGradient>
		<path class="st11" d="M573.8,648.1c31.3-6.6,61.2-21.2,86.7-44c25.5-22.9,43.3-51.1,53.2-81.5c3.1-9.6,5.5-19.4,7-29.4l-39.4-2.1
			c-1.2,6.5-2.8,13-4.9,19.3c-7.8,24-21.9,46.4-42.1,64.5c-20.2,18.1-43.9,29.6-68.6,34.8l-6.1-29.2l-38.3,58.8l58.8,38.3
			L573.8,648.1z"/>
		<g>
			<g>
				<g>
					
						<image style="overflow:visible;opacity:0.45;" width="164" height="164" xlink:href="2CBA1D09DC686D28.png"  transform="matrix(1 0 0 1 641.5239 379.9911)">
					</image>
					<g>
						
							<linearGradient id="SVGID_11_" gradientUnits="userSpaceOnUse" x1="351.962" y1="302.0994" x2="261.0911" y2="185.5793" gradientTransform="matrix(0.6678 0.7443 -0.7443 0.6678 684.8839 102.7075)">
							<stop  offset="1.017010e-03" style="stop-color:#368865"/>
							<stop  offset="1" style="stop-color:#2BA671"/>
						</linearGradient>
						<path class="st12" d="M758.3,501.9c26.3-23.6,28.4-64.3,4.6-90.8s-64.5-28.9-90.8-5.2c-26.3,23.6-28.4,64.3-4.6,90.8
							C691.3,523.2,732,525.6,758.3,501.9z"/>
					</g>
				</g>
				
					<linearGradient id="SVGID_12_" gradientUnits="userSpaceOnUse" x1="257.1783" y1="187.474" x2="310.0233" y2="240.319" gradientTransform="matrix(0.6678 0.7443 -0.7443 0.6678 684.8839 102.7075)">
					<stop  offset="0" style="stop-color:#4A4A49"/>
					<stop  offset="1" style="stop-color:#5C5C5C"/>
				</linearGradient>
				<path class="st13" d="M753.2,496.2c23.2-20.8,25-56.6,4.1-80c-21-23.4-56.7-25.4-79.9-4.6c-23.2,20.8-25,56.6-4.1,80
					C694.2,515,730,517,753.2,496.2z"/>
			</g>
		</g>
	</g>
</g>
<g>
	<g>
		
			<linearGradient id="SVGID_13_" gradientUnits="userSpaceOnUse" x1="465.8992" y1="279.2076" x2="492.281" y2="464.613" gradientTransform="matrix(0.9143 -0.4051 0.4051 0.9143 121.4519 140.5432)">
			<stop  offset="1.017010e-03" style="stop-color:#368865"/>
			<stop  offset="1" style="stop-color:#2BA671"/>
		</linearGradient>
		<path class="st14" d="M757.3,348.4c3.4-31.8-1.2-64.8-15.1-96.1c-13.9-31.3-35.2-56.9-61.1-75.7c-8.2-6-16.8-11.2-25.8-15.7
			l-14.2,36.8c5.8,3.2,11.5,6.7,16.9,10.6c20.4,14.9,37.4,35.2,48.3,59.9c11,24.8,14.6,50.9,11.9,76l-29.6-3.2l44.1,54.7l54.7-44.1
			L757.3,348.4z"/>
		<g>
			<g>
				<g>
					
						<image style="overflow:visible;opacity:0.45;" width="164" height="164" xlink:href="2CBA1D09DC686D26.png"  transform="matrix(1 0 0 1 542.5239 79.9911)">
					</image>
					<g>
						
							<linearGradient id="SVGID_14_" gradientUnits="userSpaceOnUse" x1="517.3017" y1="302.7585" x2="426.4308" y2="186.2383" gradientTransform="matrix(0.9143 -0.4051 0.4051 0.9143 121.4519 140.5432)">
							<stop  offset="1.017010e-03" style="stop-color:#368865"/>
							<stop  offset="1" style="stop-color:#2BA671"/>
						</linearGradient>
						<path class="st15" d="M675.3,127.7c-14.3-32.4-52.4-46.9-85-32.5c-32.6,14.4-47.4,52.4-33,84.7s52.4,46.9,85,32.5
							C674.8,198,689.6,160.1,675.3,127.7z"/>
					</g>
				</g>
				
					<linearGradient id="SVGID_15_" gradientUnits="userSpaceOnUse" x1="422.518" y1="188.133" x2="475.363" y2="240.978" gradientTransform="matrix(0.9143 -0.4051 0.4051 0.9143 121.4519 140.5432)">
					<stop  offset="0" style="stop-color:#4A4A49"/>
					<stop  offset="1" style="stop-color:#5C5C5C"/>
				</linearGradient>
				<path class="st16" d="M668.2,130.8c-12.6-28.5-46.1-41.3-74.8-28.6c-28.7,12.7-41.7,46.1-29.1,74.6
					c12.6,28.5,46.1,41.3,74.8,28.6C667.8,192.7,680.8,159.3,668.2,130.8z"/>
			</g>
			<g>
				
					<linearGradient id="SVGID_16_" gradientUnits="userSpaceOnUse" x1="348.6358" y1="307.0639" x2="417.158" y2="307.0639" gradientTransform="matrix(0.9157 0.4019 -0.4019 0.9157 386.0834 -275.354)">
					<stop  offset="1.017010e-03" style="stop-color:#368865"/>
					<stop  offset="1" style="stop-color:#2BA671"/>
				</linearGradient>
				<path class="st17" d="M624,136.5l-0.3,13.7l-19.2-14.1l-0.3,12.7l-17.8-13.1l-0.9,39.7l18.1,0.4l2,0l17.5,0.4l0.6,0l5,0.1
					l0.3-15.8l8.7,0.2l-0.3,15.8l5.7,0.1l0.5-25.6L624,136.5z M596.7,166l-4.9-0.1l0.1-4.9l4.9,0.1L596.7,166z M596.9,156.8
					l-4.9-0.1l0.1-4.9l4.9,0.1L596.9,156.8z M616.4,166.4l-4.9-0.1l0.1-4.9l4.9,0.1L616.4,166.4z M616.6,157.3l-4.9-0.1l0.1-4.9
					l4.9,0.1L616.6,157.3z"/>
				
					<linearGradient id="SVGID_17_" gradientUnits="userSpaceOnUse" x1="532.498" y1="286.3329" x2="542.4364" y2="286.3329" gradientTransform="matrix(0.9998 2.139914e-02 -2.139914e-02 0.9998 105.6606 -161.8898)">
					<stop  offset="1.017010e-03" style="stop-color:#368865"/>
					<stop  offset="1" style="stop-color:#2BA671"/>
				</linearGradient>
				<polygon class="st18" points="642,129.8 632,129.6 631.9,134.9 641.7,142.1 				"/>
				
					<linearGradient id="SVGID_18_" gradientUnits="userSpaceOnUse" x1="510.7059" y1="286.3329" x2="520.6443" y2="286.3329" gradientTransform="matrix(0.9998 2.139914e-02 -2.139914e-02 0.9998 105.6606 -161.8898)">
					<stop  offset="1.017010e-03" style="stop-color:#368865"/>
					<stop  offset="1" style="stop-color:#2BA671"/>
				</linearGradient>
				<polygon class="st19" points="620.2,129.4 610.3,129.2 610.1,134.5 619.9,141.7 				"/>
			</g>
		</g>
	</g>
</g>
<g id="EsvBUS.tif">
	<g>
		
			<linearGradient id="SVGID_19_" gradientUnits="userSpaceOnUse" x1="184.3354" y1="248.8053" x2="234.4247" y2="248.8053" gradientTransform="matrix(1 0 0 1 -6.6336 176.2275)">
			<stop  offset="1.017010e-03" style="stop-color:#368865"/>
			<stop  offset="1" style="stop-color:#2BA671"/>
		</linearGradient>
		<path class="st20" d="M202,417.7c2.2,0.2,4.1,1.1,6.1,1.9c0.4,0.2,0.8,0.2,1.3,0.3c1.6,0.2,3.2,0.2,4.8,0.5
			c2.2,0.4,4.1,1.6,5.7,3.2c0.9,0.9,1.9,1.6,3.2,1.9c1.5,0.5,2.9,1.2,3.9,2.4c0.3,0.3,0.5,0.7,0.9,1.2c-2.1,0.6-4,1.2-5.9,1.6
			c-7.3,1.6-14.8,1.9-22.3,1.6c-6.3-0.3-12.5-1-18.6-2.5c-1.1-0.3-2.2-0.6-3.3-0.9c1.6-2.5,3.6-4.3,6.4-5.1c1-0.3,2.1-0.4,3.1-0.7
			c0.5-0.1,0.9-0.4,1.3-0.7c2.1-1.7,4.4-3.2,7.1-3.9c1.2-0.3,2.5-0.4,3.7-0.7c0.2,0,0.4-0.1,0.7-0.1
			C200.6,417.7,201.3,417.7,202,417.7z M184.8,427.4c0-0.5-0.3-0.9-0.9-0.8c-0.4,0-0.7,0.2-0.7,0.6c0,0.5,0.3,0.9,0.8,0.9
			C184.5,428.1,184.8,427.9,184.8,427.4z M190.1,425.5c0.6-0.1,0.8-0.4,0.8-0.8c0-0.4-0.2-0.7-0.6-0.7c-0.5,0-0.8,0.3-0.8,0.7
			C189.5,425,189.8,425.3,190.1,425.5z M190.9,428.7c-0.2,0.2-0.5,0.5-0.4,0.7c0.1,0.3,0.4,0.5,0.7,0.6c0.1,0,0.5-0.3,0.6-0.6
			C191.8,429,191.5,428.8,190.9,428.7z M188.6,427.3c0.1-0.7-0.3-0.9-0.7-0.9c-0.2,0-0.5,0.3-0.6,0.6c-0.1,0.4,0.2,0.7,0.6,0.7
			C188.2,427.6,188.5,427.3,188.6,427.3z M185.6,429.4c0.2,0.2,0.5,0.5,0.7,0.6c0.4,0.1,0.7-0.1,0.7-0.5c0-0.4-0.1-0.7-0.6-0.7
			C186,428.8,185.7,428.8,185.6,429.4z"/>
		
			<linearGradient id="SVGID_20_" gradientUnits="userSpaceOnUse" x1="177.4067" y1="289.0963" x2="240.6397" y2="289.0963" gradientTransform="matrix(1 0 0 1 -6.6336 176.2275)">
			<stop  offset="1.017010e-03" style="stop-color:#368865"/>
			<stop  offset="1" style="stop-color:#2BA671"/>
		</linearGradient>
		<path class="st21" d="M230.2,444.4c0.4,3.2,0.9,6.3,1.1,9.4c0.3,3.5,0.6,7,0.7,10.6c0.2,4.6,0.1,9.2,0.1,13.8c0,0.7,0,1.3,0.6,1.8
			c0.7,0.6,1.1,1.4,1.1,2.4c0,0.8-0.4,1.2-1.1,1.4c-0.2,0-0.5,0-0.7,0c-2.8-0.4-5.6,0-8.3,0.4c-8.8,1.5-17.6,2.3-26.5,1.9
			c-5.5-0.3-11-1-16.4-1.9c-2.1-0.3-4.3-0.4-6.5-0.6c-0.6,0-1.3,0.1-1.9,0.2c-1.4,0.1-2.1-0.8-1.6-2.1c0.3-0.7,0.8-1.3,1.2-2
			c0.2-0.3,0.4-0.6,0.4-0.9c-0.3-6.2-0.1-12.3,0.4-18.5c0.4-5,1-9.9,1.6-14.9c0-0.3,0.1-0.7,0.2-1c2.3,0.4,4.7,1,7,1.3
			c3.8,0.6,7.5,1.1,11.3,1.5c4.9,0.6,9.8,0.7,14.7,0.5c7.4-0.2,14.7-1.1,21.8-3.2C229.6,444.5,229.8,444.5,230.2,444.4z
			 M203.1,467.9c0.1,0,0.1,0.1,0.2,0.1c0.2-0.4,0.5-0.7,0.6-1.1c0.4-1.7,1.4-2.8,3-3.3c1.2-0.4,2.5-0.4,3.8-0.2
			c0.5,0.1,0.8,0.5,0.5,0.9c-0.6,1-1.2,2.1-2,3c-1.1,1.2-2.6,1.5-4.1,1.1c-0.1,0-0.4-0.1-0.5,0c-0.5,0.6-1.3,1.2-1.4,1.9
			c-0.2,1.1-0.1,2.3-0.1,3.4c1.4,0,2.4,0.6,3.5,1.2c1.2,0.7,2.4,1.4,3.5,2.1c0.5,0.3,0.8,0.2,1.1-0.1c4.1-3.5,5.8-7.9,5-13.3
			c-1.2-8-9.4-13.4-17.3-11.3c-7.2,1.9-11.7,8.9-10.3,16.3c0.8,4,3,7.1,6.5,9.4c0.9-0.7,1.9-1.4,2.8-2.1c1.1-0.9,2.1-1.7,3.6-1.4
			c0.1,0,0.1,0,0.2-0.1c0-0.9-0.1-1.8,0-2.7c0.2-1.2-0.4-2.1-1.1-2.9c-0.3-0.3-0.5-0.4-0.9-0.3c-1.4,0.4-2.7,0.1-3.8-0.8
			c-1-0.8-1.7-1.9-2.2-3.1c-0.3-0.7-0.1-1.1,0.6-1.1c0.9,0,1.7-0.1,2.6,0c2,0.2,3.6,1.6,4,3.4c0.1,0.4,0.4,0.8,0.6,1.2
			c0.1,0,0.1-0.1,0.2-0.1c0-1.7,0-3.5,0-5.2c0-0.2-0.2-0.4-0.4-0.6c-0.8-0.9-1.3-1.9-1.3-3.1c0-1.8,0.9-3.2,1.9-4.5
			c0.3-0.4,0.8-0.3,1,0.1c0.5,1,1.2,2,1.5,3c0.5,1.7,0.1,3.2-1.1,4.5c-0.1,0.1-0.3,0.4-0.3,0.6C203,464.5,203.1,466.2,203.1,467.9z"
			/>
		
			<linearGradient id="SVGID_21_" gradientUnits="userSpaceOnUse" x1="179.6257" y1="261.9643" x2="238.1731" y2="261.9643" gradientTransform="matrix(1 0 0 1 -6.6336 176.2275)">
			<stop  offset="1.017010e-03" style="stop-color:#368865"/>
			<stop  offset="1" style="stop-color:#2BA671"/>
		</linearGradient>
		<path class="st22" d="M203.4,446.8c-4.7-0.4-9.3-0.6-13.9-1.1c-4.8-0.5-9.5-1.3-14.2-2.4c-0.4-0.1-0.7-0.3-1.1-0.3
			c-0.8-0.1-1.1-0.7-1.1-1.4c-0.2-1.3,0.1-2.4,1.1-3.4c0.2-0.2,0.4-0.3,0.5-0.5c0.6-0.7,0.7-1.2,0.1-2c-1-1.3-1.3-2.7-0.8-4.2
			c0.2-0.5,0.6-1,1.1-1.4c0.5-0.5,1.1-0.5,1.9-0.3c2.5,0.8,5.1,1.5,7.7,2c7.3,1.4,14.6,2,22,1.8c5.9-0.1,11.7-0.7,17.4-2.2
			c1.5-0.4,3-1,4.5-1.4c0.3-0.1,0.7-0.1,0.9,0c1.8,0.8,2.5,2.8,1.8,4.8c-0.2,0.6-0.5,1.2-0.8,1.7c-0.5,1-0.5,2,0.2,2.9
			c0.5,0.8,0.8,1.7,0.7,2.7c0,0.4-0.2,0.6-0.6,0.8c-3.1,1.1-6.3,1.8-9.6,2.4c-5.9,1-11.8,1.4-17.8,1.3
			C203.4,446.7,203.4,446.7,203.4,446.8z"/>
	</g>
</g>
<g id="f9JMD5.tif">
	<g>
		
			<linearGradient id="SVGID_22_" gradientUnits="userSpaceOnUse" x1="298.0375" y1="608.3887" x2="348.1332" y2="608.3887" gradientTransform="matrix(1 0 0 1 127.4985 37.1716)">
			<stop  offset="1.017010e-03" style="stop-color:#368865"/>
			<stop  offset="1" style="stop-color:#2BA671"/>
		</linearGradient>
		<path class="st23" d="M425.5,664.1c0.4-1.9,0.9-3.7,1.3-5.6c2.3-10.8,4.7-21.5,7-32.3c0.1-0.6,0.1-1.4,0.5-1.8
			c0.4-0.3,1.2-0.1,1.8-0.1c9.9,0,19.9,0,29.8,0c0.7,0,1,0.2,1.1,0.9c2.8,12.9,5.6,25.8,8.4,38.7c0.3,1.4,0,2-1.4,2.9
			c-7.2,0-14.3,0-21.5,0c0-2.5,0-5.1-0.1-7.6c0-0.7,0.2-1,0.9-1.1c8.3-2,11.8-12.5,6.1-18.9c-2.4-2.7-5.1-5.2-7.6-7.7
			c-0.9-0.9-2-0.8-2.9,0.1c-2.4,2.4-4.9,4.8-7.2,7.3c-4.4,4.6-4,12.3,0.6,16.6c1.7,1.5,3.7,2.5,5.9,3c0,0.4,0,0.7,0,1
			c0,2.5,0.1,5,0.1,7.5c-7.2,0-14.3,0-21.5,0c-0.7-0.3-1.2-0.8-1.6-1.6C425.5,664.9,425.5,664.5,425.5,664.1z"/>
		
			<linearGradient id="SVGID_23_" gradientUnits="userSpaceOnUse" x1="346.7409" y1="615.3901" x2="370.3886" y2="615.3901" gradientTransform="matrix(1 0 0 1 127.4985 37.1716)">
			<stop  offset="1.017010e-03" style="stop-color:#368865"/>
			<stop  offset="1" style="stop-color:#2BA671"/>
		</linearGradient>
		<path class="st24" d="M479.4,666.8c0.5-1.1,0.5-2.3,0.2-3.5c-1.8-8.1-3.5-16.2-5.3-24.3c0-0.2-0.1-0.5-0.1-0.7
			c6.1,0,12.1,0,18.2,0c0.5,2.4,1,4.7,1.5,7c1.3,6.2,2.6,12.4,3.8,18.5c0,0.1,0.1,0.2,0.1,0.3c0,0.4,0,0.8,0,1.1
			c-0.3,0.7-0.8,1.3-1.6,1.6C490.7,666.8,485,666.8,479.4,666.8z"/>
		
			<linearGradient id="SVGID_24_" gradientUnits="userSpaceOnUse" x1="307.6277" y1="578.8348" x2="338.4605" y2="578.8348" gradientTransform="matrix(1 0 0 1 127.4985 37.1716)">
			<stop  offset="1.017010e-03" style="stop-color:#368865"/>
			<stop  offset="1" style="stop-color:#2BA671"/>
		</linearGradient>
		<path class="st25" d="M463.1,611.8c1,0.5,1.4,1.3,1.6,2.4c0.3,1.8,0.8,3.6,1.2,5.4c0,0.2,0,0.3,0,0.5c-10.3,0-20.5,0-30.8,0
			c0.5-2.3,1-4.6,1.5-6.9c0.2-0.8,0.8-1.1,1.4-1.4C446.5,611.8,454.8,611.8,463.1,611.8z"/>
		
			<linearGradient id="SVGID_25_" gradientUnits="userSpaceOnUse" x1="344.1317" y1="593.1276" x2="364.0305" y2="593.1276" gradientTransform="matrix(1 0 0 1 127.4985 37.1716)">
			<stop  offset="1.017010e-03" style="stop-color:#368865"/>
			<stop  offset="1" style="stop-color:#2BA671"/>
		</linearGradient>
		<path class="st26" d="M491.5,634.2c-0.3,0-0.5,0-0.8,0c-5.6,0-11.2,0-16.7,0c-0.6,0-0.8-0.2-0.9-0.8c-0.5-2.3-1-4.5-1.5-6.9
			c0.3,0,0.5-0.1,0.8-0.1c5.2,0,10.4,0,15.5,0c1.5,0,2.2,0.6,2.5,2c0.4,1.7,0.7,3.4,1.1,5.1C491.5,633.7,491.5,633.9,491.5,634.2z"
			/>
		
			<linearGradient id="SVGID_26_" gradientUnits="userSpaceOnUse" x1="315.3616" y1="607.7986" x2="330.7433" y2="607.7986" gradientTransform="matrix(1 0 0 1 127.4985 37.1716)">
			<stop  offset="1.017010e-03" style="stop-color:#368865"/>
			<stop  offset="1" style="stop-color:#2BA671"/>
		</linearGradient>
		<path class="st27" d="M448.5,654c-2.2-0.7-3.7-1.9-4.7-3.9c-1.4-3-1.2-5.9,1-8.4c1.8-2.1,3.9-3.9,5.9-5.8c-0.1,0,0,0,0,0
			c1.8,1.8,3.7,3.6,5.5,5.5c3.7,3.9,2.2,10.3-2.8,12.3c-0.2,0.1-0.5,0.2-0.8,0.3c0-0.4,0-0.6,0-0.8c0-1.7,0-3.4,0-5.2
			c0-1.1-0.7-1.9-1.7-2c-1-0.1-1.9,0.3-2.2,1.2c-0.1,0.4-0.2,0.8-0.2,1.2c0,1.6,0,3.2,0,4.7C448.5,653.4,448.5,653.7,448.5,654z"/>
	</g>
</g>
<g id="OMCFJ5.tif">
	<g>
		
			<linearGradient id="SVGID_27_" gradientUnits="userSpaceOnUse" x1="450.7495" y1="72.9362" x2="506.2458" y2="72.9362" gradientTransform="matrix(1 0 0 1 -179.4417 93.1129)">
			<stop  offset="1.017010e-03" style="stop-color:#368865"/>
			<stop  offset="1" style="stop-color:#2BA671"/>
		</linearGradient>
		<path class="st28" d="M326.8,175.4c-18.5,0-36.9,0-55.4,0c0-0.2,0-0.4,0-0.6c0-4,0-7.9,0-11.9c0-0.4,0.1-0.7,0.5-0.9
			c1.7-1,3.5-1.4,5.5-1.1c1.2,0.2,2.3,0.5,3.4,0.8c0.2,0,0.4,0,0.5-0.1c2.1-2.2,4.6-2.5,7.3-1.8c0.5,0.1,0.8,0.1,1.1-0.3
			c1.4-1.3,3.2-2,5.1-2.4c3.5-0.7,7-0.6,10.4,0.5c1.3,0.4,2.5,1.1,3.5,2c0.2,0.1,0.5,0.2,0.7,0.1c1.6-0.5,3.3-0.5,4.9,0
			c1,0.3,1.8,0.8,2.5,1.6c0.2,0.3,0.4,0.4,0.8,0.2c1.6-0.6,3.2-0.9,4.8-0.8c1.5,0.1,2.8,0.5,4,1.3c0.2,0.1,0.3,0.4,0.3,0.6
			c0,4.1,0,8.3,0,12.4C326.8,175.2,326.8,175.3,326.8,175.4z M282.3,166c0-0.1,0.1-0.2,0.1-0.3c-0.2-0.1-0.4-0.2-0.6-0.3
			c-0.9-0.4-1.9-0.6-2.9-0.2c-0.2,0.1-0.4,0-0.6-0.1c-1.4-0.9-2.8-0.8-4,0.3c-0.2,0.2-0.5,0.4-0.2,0.8c0.2,0.3,0.5,0.1,0.7-0.1
			c1.2-0.9,2.1-0.9,3.2,0c0.3,0.2,0.5,0.3,0.9,0.1c0.7-0.4,1.4-0.4,2.1-0.1c0.2,0.1,0.4,0.2,0.6,0.2
			C281.9,166.2,282.1,166.1,282.3,166z M299.8,160.8c-0.6,0.2-1.1,0.3-1.6,0.5c-0.3,0.1-0.7,0.3-0.5,0.7c0.2,0.4,0.5,0.3,0.8,0.1
			c0.7-0.3,1.5-0.5,2.2-0.1c0.4,0.2,0.7,0.2,1.1-0.1c1-0.8,1.7-0.7,2.7,0.1c0.1,0.1,0.5,0.2,0.7,0.1c0.3-0.2,0.2-0.5,0-0.7
			c-0.7-0.8-1.6-1.2-2.6-0.8C301.7,160.9,300.8,161.4,299.8,160.8z M306.8,170.3c0.4,0.1,0.7,0.3,1.1,0.4c0.2,0.1,0.5,0.1,0.7,0
			c0.6-0.4,1.1-0.4,1.6,0c0.2,0.2,0.5,0.2,0.7-0.1c0.1-0.2,0-0.5-0.2-0.6c-0.6-0.5-1.3-0.7-2-0.3c-0.3,0.2-0.6,0.1-1,0
			c-0.8-0.3-1.6-0.2-2.3,0.3c-0.2,0.2-0.5,0.4-0.3,0.7c0.2,0.3,0.4,0.2,0.7,0.1C306.1,170.5,306.4,170.4,306.8,170.3z M290,169.8
			c0.4,0.2,0.7,0.3,1.1,0.4c0.2,0,0.4,0,0.6-0.1c-0.1-0.2,0-0.5-0.2-0.6c-0.7-0.7-2.3-0.7-3.1,0c-0.1,0.1-0.1,0.4-0.2,0.6
			c0.2,0,0.4,0.2,0.6,0.1C289.2,170.2,289.6,170,290,169.8z M320,165.8c0-0.1-0.1-0.2-0.2-0.3c-0.7-0.7-2.6-0.7-3.3,0
			c-0.1,0.1-0.2,0.4-0.1,0.5c0.1,0.1,0.4,0.2,0.6,0.1c0.8-0.4,1.5-0.5,2.3,0C319.6,166.4,320,166.2,320,165.8z"/>
		
			<linearGradient id="SVGID_28_" gradientUnits="userSpaceOnUse" x1="456.446" y1="38.9865" x2="478.0795" y2="38.9865" gradientTransform="matrix(1 0 0 1 -179.4417 93.1129)">
			<stop  offset="1.017010e-03" style="stop-color:#368865"/>
			<stop  offset="1" style="stop-color:#2BA671"/>
		</linearGradient>
		<path class="st29" d="M295.6,139c-2.2,1.4-4.4,1.6-6.7,0.5c-2.2-1.1-3.6-3-4.8-5.1c-0.7-1.3-1.4-2.6-2.3-3.9
			c-1.1-1.6-2.6-2.7-4.3-3.7c-0.2-0.1-0.4-0.2-0.6-0.5c1.5-0.5,3-1.1,4.5-1.6c2.6-0.8,5.3-1.1,8.1-0.7c4.7,0.6,7.8,3.4,8.8,7.4
			c0.4,1.7,0.2,3.4-0.6,5c-0.1,0.1-0.2,0.2-0.2,0.3c-0.7-1.1-1.3-2.2-2.1-3.2c-2.7-3.3-6.1-5.5-10.3-6.4c-0.6-0.1-1.2,0.2-1.5,0.7
			c-0.2,0.5-0.1,1.1,0.4,1.5c0.3,0.2,0.6,0.4,0.9,0.5c4.4,1.5,8,4.1,10.2,8.3C295.4,138.4,295.5,138.7,295.6,139z"/>
		
			<linearGradient id="SVGID_29_" gradientUnits="userSpaceOnUse" x1="480.2967" y1="34.881" x2="501.8863" y2="34.881" gradientTransform="matrix(1 0 0 1 -179.4417 93.1129)">
			<stop  offset="1.017010e-03" style="stop-color:#368865"/>
			<stop  offset="1" style="stop-color:#2BA671"/>
		</linearGradient>
		<path class="st30" d="M301.8,132.6c-1-2-1.2-3.9-0.4-5.9c1.3-3.7,4.1-5.8,7.9-6.5c4.1-0.8,8,0.1,11.9,1.6c0.5,0.2,1,0.4,1.4,0.6
			c-1,0.6-1.9,1.2-2.8,1.9c-1.7,1.4-2.9,3.1-3.9,5.1c-0.9,1.9-2,3.6-3.6,4.9c-2.4,2-5.3,2.3-7.9,0.9c-0.2-0.1-0.4-0.3-0.7-0.4
			c0.9-1.8,2-3.5,3.5-4.9c2.2-2,4.6-3.5,7.4-4.3c0.2,0,0.3-0.1,0.5-0.2c0.6-0.4,0.9-1,0.7-1.6c-0.2-0.6-0.7-1-1.5-0.8
			c-0.9,0.2-1.8,0.4-2.7,0.8c-4.1,1.6-7.2,4.4-9.5,8.1C302.1,132.1,301.9,132.3,301.8,132.6z"/>
		
			<linearGradient id="SVGID_30_" gradientUnits="userSpaceOnUse" x1="463.9693" y1="48.8324" x2="478.961" y2="48.8324" gradientTransform="matrix(1 0 0 1 -179.4417 93.1129)">
			<stop  offset="1.017010e-03" style="stop-color:#368865"/>
			<stop  offset="1" style="stop-color:#2BA671"/>
		</linearGradient>
		<path class="st31" d="M299.5,155.8c-0.3,0-0.6,0-0.9,0c0-0.1,0-0.2-0.1-0.4c-0.1-2.7-0.1-5.3-0.2-8c-0.2-3.4-0.7-6.7-2.3-9.7
			c-2.3-4.4-6.1-7.1-10.7-8.7c-0.4-0.1-1-0.2-0.8-0.7c0.1-0.5,0.7-0.3,1-0.2c5.7,1.6,9.8,5.1,11.9,10.8c1,2.7,1.5,5.5,1.7,8.3
			c0.2,2.6,0.2,5.3,0.4,7.9C299.5,155.4,299.5,155.6,299.5,155.8z"/>
		
			<linearGradient id="SVGID_31_" gradientUnits="userSpaceOnUse" x1="478.7957" y1="40.8396" x2="494.407" y2="40.8396" gradientTransform="matrix(1 0 0 1 -179.4417 93.1129)">
			<stop  offset="1.017010e-03" style="stop-color:#368865"/>
			<stop  offset="1" style="stop-color:#2BA671"/>
		</linearGradient>
		<path class="st32" d="M299.7,144c-0.3-1.2-0.5-2.2-0.2-3.3c1.1-4.3,2.8-8.4,5.9-11.7c2.3-2.5,5.1-4.2,8.4-5.1
			c0.1,0,0.3-0.1,0.4-0.1c0.2,0,0.5,0.1,0.7,0.2c-0.2,0.2-0.3,0.5-0.5,0.6c-0.8,0.3-1.6,0.6-2.4,0.9c-5,2.3-8.3,6.1-10.3,11.1
			c-0.9,2.2-1.5,4.5-2,6.8C299.8,143.7,299.7,143.8,299.7,144z"/>
	</g>
</g>
<g id="p8SlHe.tif">
	<g>
		
			<linearGradient id="SVGID_32_" gradientUnits="userSpaceOnUse" x1="650.0367" y1="586.1228" x2="682.667" y2="586.1228" gradientTransform="matrix(1 0 0 1 36.6549 -127.9182)">
			<stop  offset="1.017010e-03" style="stop-color:#368865"/>
			<stop  offset="1" style="stop-color:#2BA671"/>
		</linearGradient>
		<path class="st33" d="M715.6,487.9c-1.1-0.2-2.2-0.3-3.3-0.5c-7.7-1.4-14-5.2-18.9-11.3c-3.5-4.4-5.7-9.4-6.4-15
			c-1.4-11.4,2.4-20.9,11.1-28.4c0.1-0.1,0.3-0.2,0.5-0.4c-0.7-0.3-1.2-0.5-1.8-0.7c-0.9-0.4-1.3-1.2-1-2c0.3-0.8,1.2-1.2,2.1-0.8
			c1.5,0.6,3.1,1.2,4.6,1.9c0.7,0.3,1.1,0.8,1.1,1.6c0,1.5,0,3.1,0,4.6c0,1-0.6,1.6-1.5,1.6c-0.9,0-1.5-0.6-1.5-1.7
			c0-0.7,0-1.4,0-2.3c-0.7,0.6-1.3,1.1-1.9,1.7c-4.7,4.5-7.6,9.9-8.6,16.3c-1.9,12.8,4.9,25.1,16.9,30.2c3.3,1.4,6.9,2.1,10.5,2.2
			c1.1,0,1.6,0.3,1.9,1c0.2,0.7,0,1.3-0.9,1.9C717.4,487.9,716.5,487.9,715.6,487.9z"/>
		
			<linearGradient id="SVGID_33_" gradientUnits="userSpaceOnUse" x1="679.6802" y1="583.1482" x2="712.3166" y2="583.1482" gradientTransform="matrix(1 0 0 1 36.6549 -127.9182)">
			<stop  offset="1.017010e-03" style="stop-color:#368865"/>
			<stop  offset="1" style="stop-color:#2BA671"/>
		</linearGradient>
		<path class="st34" d="M749,458.9c-0.2,1.1-0.3,2.2-0.5,3.3c-1.4,7.5-5,13.6-10.9,18.5c-0.1,0.1-0.2,0.2-0.3,0.3c0,0,0,0.1-0.1,0.2
			c0.6,0.2,1.2,0.5,1.7,0.7c1,0.4,1.4,1.2,1,2c-0.3,0.9-1.2,1.2-2.1,0.8c-1.5-0.6-3.1-1.2-4.6-1.8c-0.8-0.3-1.1-0.8-1.1-1.6
			c0-1.6,0-3.1,0-4.7c0-1,0.6-1.6,1.5-1.6c0.9,0,1.5,0.6,1.5,1.6c0,0.7,0,1.4,0,2.3c0.4-0.3,0.8-0.6,1.1-0.9
			c5.3-4.7,8.5-10.5,9.5-17.5c2-14.4-7.5-28.1-21.7-31.2c-2-0.4-4.1-0.5-6.1-0.7c-1-0.1-1.6-0.6-1.6-1.5c0-0.9,0.6-1.5,1.7-1.5
			c13.8-0.1,26.2,9.4,29.8,22.8c0.5,1.9,0.7,3.8,1,5.7c0,0.1,0.1,0.3,0.1,0.4C749,456,749,457.5,749,458.9z"/>
		
			<linearGradient id="SVGID_34_" gradientUnits="userSpaceOnUse" x1="666.8073" y1="567.8304" x2="695.5226" y2="567.8304" gradientTransform="matrix(1 0 0 1 36.6549 -127.9182)">
			<stop  offset="1.017010e-03" style="stop-color:#368865"/>
			<stop  offset="1" style="stop-color:#2BA671"/>
		</linearGradient>
		<path class="st35" d="M715.4,436.5c-0.2-1.2-0.9-1.9-1.8-2.5c-0.4-0.3-0.9-0.4-1.3-0.7c-0.7-0.4-1-1.2-0.7-1.9
			c0.3-0.8,1.1-1.1,1.9-0.8c2.5,1,4.4,2.6,4.9,5.4c0.1,0.4,0.3,0.4,0.5,0.4c4.2,0.2,8,1.6,11.4,4.2c0.5,0.4,1,0.8,1.5,1.3
			c0.5,0.5,0.6,1,0.3,1.6c-0.3,0.6-0.7,0.9-1.4,0.9c-1.3,0-2.3,0.9-2.4,2.3c-0.1,0.7-0.4,1.3-1.1,1.5c-0.7,0.2-1.3-0.1-1.8-0.7
			c-1.1-1.3-2.4-2.1-4.2-1.7c-0.9,0.2-1.5,0.7-1.9,1.5c-0.7,1.2-1.5,1.3-2.7,0.5c-1.8-1.2-3.7-1.5-5.7-0.8c-0.7,0.3-1.2,0.9-1.6,1.5
			c-0.5,0.8-1.3,1-2.1,0.6c-0.6-0.4-0.9-1.1-0.6-1.8c0.4-1.3-0.4-2.6-1.8-2.8c-0.6-0.1-1-0.5-1.2-1c-0.2-0.6,0-1.1,0.4-1.6
			c1.4-1.3,2.9-2.4,4.6-3.2c1.9-1,4-1.7,6.1-2C714.9,436.6,715.1,436.6,715.4,436.5z"/>
		
			<linearGradient id="SVGID_35_" gradientUnits="userSpaceOnUse" x1="666.8047" y1="599.0028" x2="695.5186" y2="599.0028" gradientTransform="matrix(1 0 0 1 36.6549 -127.9182)">
			<stop  offset="1.017010e-03" style="stop-color:#368865"/>
			<stop  offset="1" style="stop-color:#2BA671"/>
		</linearGradient>
		<path class="st36" d="M716.3,477c-3.8-0.1-8.3-1.8-12.2-5.3c-0.9-0.8-0.9-1.6-0.1-2.5c0.7-0.8,1.4-1.5,2.1-2.4
			c0.5-0.7,1.1-1,1.9-0.8c1.2,0.2,2.4,0,3.5-0.6c0.5-0.3,1-0.3,1.6-0.1c2.2,0.9,4.4,1,6.6,0.3c0.6-0.2,1.1-0.1,1.6,0.3
			c1.9,1.4,3.9,1.6,6,0.5c0.9-0.5,1.5-0.3,2.2,0.5c0.7,0.8,1.3,1.6,2,2.3c0.8,0.9,0.8,1.7-0.1,2.5C727.7,475.2,722.9,477,716.3,477z
			"/>
		
			<linearGradient id="SVGID_36_" gradientUnits="userSpaceOnUse" x1="674.0261" y1="584.3339" x2="688.9924" y2="584.3339" gradientTransform="matrix(1 0 0 1 36.6549 -127.9182)">
			<stop  offset="1.017010e-03" style="stop-color:#368865"/>
			<stop  offset="1" style="stop-color:#2BA671"/>
		</linearGradient>
		<path class="st37" d="M725.6,465.5c-1.2,0.2-2.3,0.1-3.2-0.6c-1.1-0.8-2.2-1-3.5-0.6c-1.7,0.5-3.4,0.4-5-0.2
			c-1.1-0.4-2.1-0.5-3.3,0.1c0.1-0.3,0.2-0.5,0.3-0.7c1.9-4.6,1.9-9.2-0.1-13.8c-0.3-0.7-0.3-1,0.6-1.4c0.9-0.5,1.9-0.4,2.9-0.1
			c0.6,0.2,1.1,0.5,1.6,0.8c1.4,1.1,3.4,0.8,4.4-0.7c1-1.6,2.6-1.6,3.8-0.1c0.3,0.3,0.5,0.6,0.8,1
			C722.5,454.7,722.7,460.1,725.6,465.5z"/>
	</g>
</g>
<g>
	<g>
		<text transform="matrix(1 0 0 1 699.2686 121.5376)"><tspan x="0" y="0" class="st38 st39 st40">Resíduos Orgânicos </tspan><tspan x="0" y="27.7" class="st38 st39 st40">Industriais </tspan><tspan x="0" y="55.5" class="st38 st39 st40">e Comerciais</tspan></text>
	</g>
</g>
<text transform="matrix(1 0 0 1 696.7207 85.4053)" class="st38 st41 st42">01</text>
<g>
	<text transform="matrix(1 0 0 1 798.9111 563.3999)"><tspan x="0" y="0" class="st38 st39 st40">Compostagem</tspan><tspan x="180.8" y="0" class="st38 st43 st40"> </tspan><tspan x="0" y="27.7" class="st38 st43 st40">in situ.</tspan><tspan x="0" y="55.5" class="st38 st39 st40">Solução fechada</tspan></text>
</g>
<text transform="matrix(1 0 0 1 789.6318 523.2681)" class="st38 st41 st42">02</text>
<g>
	<g>
		<text transform="matrix(1 0 0 1 5.5474 569.8608)" class="st38 st39 st40">Composto</text>
	</g>
</g>
<text transform="matrix(1 0 0 1 -3.7324 529.728)" class="st38 st41 st42">04</text>
<g>
	<g>
		<text transform="matrix(1 0 0 1 100.0752 28.1551)"><tspan x="0" y="0" class="st38 st39 st40">Jardim e </tspan><tspan x="0" y="27.7" class="st38 st39 st40">Hortas</tspan></text>
	</g>
</g>
<text transform="matrix(1 0 0 1 218.666 68.0166)" class="st38 st41 st44">05</text>
<g>
	<text transform="matrix(1 0 0 1 414.3975 771.6948)"><tspan x="0" y="0" class="st38 st39 st40">Torre de </tspan><tspan x="0" y="27.7" class="st38 st39 st40">compostagem</tspan></text>
</g>
<text transform="matrix(1 0 0 1 281.7446 809.2231)" class="st38 st41 st44">03</text>
<g>
	<g>
		<path class="st45" d="M679.4,206.1c0.2-1.7,0.3-2.6,0.5-4.3c-0.1-0.1-0.2-0.2-0.4-0.3c-0.9-0.8-1.3-1.2-2.2-2
			c-0.9,1-1.4,1.6-2.3,2.6c-0.7-0.6-1.1-0.9-1.8-1.6c3.1-3.6,4.7-5.4,7.8-9.1c1.7,1.5,2.5,2.2,4.1,3.7c0.9,0.8,1.5,1.6,1.9,2.4
			c0.4,0.8,0.5,1.7,0.4,2.4c-0.1,0.8-0.5,1.5-1.1,2.1c-0.6,0.6-1.3,1-2.1,1.2c-0.8,0.1-1.6,0-2.5-0.4c-0.2,2-0.3,2.9-0.6,4.9
			C680.5,207.2,680.1,206.8,679.4,206.1z M685.2,198.6c-0.1-0.7-0.6-1.4-1.4-2.1c-0.9-0.8-1.3-1.2-2.2-1.9c-1.3,1.4-1.9,2.1-3.2,3.6
			c0.8,0.8,1.3,1.1,2.1,1.9c0.8,0.7,1.5,1.1,2.2,1.2c0.7,0.1,1.3-0.2,1.8-0.7C685.1,199.9,685.3,199.3,685.2,198.6z"/>
		<path class="st45" d="M691.9,213.3c-2.1-2.3-3.1-3.4-5.3-5.6c-0.4,0.6-0.5,1.2-0.4,1.9c0.1,0.7,0.5,1.3,1,1.9
			c0.7,0.8,1.6,1.2,2.5,1.2c-0.1,0.7-0.1,1.1-0.1,1.8c-0.7,0-1.3-0.1-1.9-0.4c-0.6-0.3-1.2-0.8-1.8-1.4c-0.7-0.8-1.2-1.6-1.5-2.4
			c-0.3-0.9-0.3-1.7-0.1-2.5c0.2-0.8,0.6-1.6,1.2-2.2c0.6-0.6,1.3-1.1,2.2-1.2c0.8-0.2,1.6-0.2,2.5,0.1c0.8,0.3,1.6,0.8,2.3,1.5
			c0.7,0.7,1.1,1.5,1.4,2.3c0.2,0.8,0.2,1.6,0,2.4c-0.2,0.8-0.7,1.5-1.4,2.1C692.2,213,692.1,213.1,691.9,213.3z M689.3,206.2
			c-0.7-0.1-1.3,0.1-1.8,0.5c1.6,1.6,2.4,2.4,3.9,4c0.4-0.5,0.6-1.1,0.5-1.8c-0.1-0.7-0.3-1.3-0.9-1.8
			C690.6,206.6,690,206.3,689.3,206.2z"/>
		<path class="st45" d="M706.4,216.7c-3.9,3.2-5.9,4.8-9.9,8c-0.5-0.7-0.8-1-1.4-1.7c0.4-0.3,0.5-0.5,0.9-0.8
			c-0.6,0-1.1-0.2-1.6-0.4c-0.5-0.3-1-0.7-1.4-1.2c-0.6-0.7-1-1.5-1.2-2.3c-0.2-0.8-0.2-1.6,0.1-2.4c0.2-0.8,0.7-1.5,1.4-2.1
			c0.7-0.6,1.4-1,2.3-1.2c0.8-0.1,1.6-0.1,2.4,0.3c0.8,0.3,1.5,0.9,2.1,1.6c0.4,0.5,0.7,1,0.9,1.6c0.2,0.6,0.3,1.1,0.2,1.7
			c1.4-1.2,2.2-1.8,3.6-3C705.5,215.6,705.8,216,706.4,216.7z M695.8,220.6c0.5,0.2,0.9,0.2,1.4,0.2c0.5-0.1,1-0.3,1.4-0.7
			c0.4-0.4,0.7-0.8,0.9-1.3c0.2-0.5,0.2-1,0.1-1.5c-0.1-0.5-0.3-1-0.7-1.4s-0.8-0.7-1.2-0.9c-0.5-0.2-1-0.2-1.5-0.1
			c-0.5,0.1-1,0.3-1.4,0.7c-0.4,0.4-0.7,0.8-0.9,1.3c-0.2,0.5-0.2,1-0.1,1.4c0.1,0.5,0.3,0.9,0.7,1.3
			C695,220.1,695.4,220.4,695.8,220.6z"/>
		<path class="st45" d="M711.3,229.1c-3,2.1-4.5,3.2-7.5,5.3c-0.5-0.7-0.7-1-1.2-1.7c0.4-0.3,0.6-0.4,0.9-0.7
			c-0.5-0.1-1.1-0.2-1.6-0.5s-0.9-0.7-1.3-1.2c-0.8-1-1.1-2-1-3c0.1-1,0.6-1.9,1.7-2.7c1.6-1.3,2.5-1.9,4.1-3.2
			c0.6,0.7,0.9,1.1,1.4,1.9c-1.6,1.2-2.3,1.8-3.9,3c-0.7,0.5-1,1-1.1,1.6c-0.1,0.6,0.1,1.1,0.5,1.7c0.5,0.6,1.1,1,1.7,1.1
			c0.7,0.1,1.4-0.1,2.1-0.6c1.5-1.1,2.2-1.6,3.7-2.7C710.5,228,710.8,228.4,711.3,229.1z"/>
		<path class="st45" d="M706.9,238c-0.1-0.9,0-1.7,0.3-2.5c0.3-0.8,0.9-1.4,1.6-1.9s1.5-0.8,2.4-0.8c0.8,0,1.7,0.2,2.4,0.6
			c0.8,0.5,1.5,1.1,2,2c0.5,0.8,0.8,1.7,0.9,2.5c0.1,0.8-0.1,1.6-0.5,2.2c-0.7-0.4-1.1-0.6-1.8-1c0.2-0.5,0.3-0.9,0.2-1.4
			c-0.1-0.5-0.2-0.9-0.5-1.3c-0.5-0.7-1.1-1.2-1.8-1.4c-0.7-0.2-1.5,0-2.2,0.5c-0.7,0.5-1.1,1.1-1.3,1.8c-0.1,0.7,0,1.5,0.5,2.2
			c0.3,0.4,0.6,0.7,1,1c0.4,0.2,0.9,0.4,1.4,0.4c0,0.8,0.1,1.2,0.1,2c-0.8,0-1.5-0.1-2.2-0.5c-0.7-0.4-1.3-1-1.8-1.8
			C707.3,239.7,707,238.8,706.9,238z M703.6,240.3c0.4-0.1,0.6-0.1,1.1-0.2c0.1,0.4,0.2,0.8,0.4,1.1c0.3,0.5,0.7,0.7,1,0.4
			c0.1-0.1,0.2-0.2,0.2-0.4c0-0.2-0.1-0.4-0.3-0.7c-0.1-0.2-0.2-0.3-0.3-0.5c0.7-0.2,1-0.3,1.7-0.6c0.3,0.4,0.4,0.6,0.7,1
			c-0.4,0.1-0.6,0.2-0.9,0.3c0.2,0.5,0.3,0.9,0.2,1.2c-0.1,0.4-0.3,0.6-0.6,0.8c-0.4,0.3-0.9,0.3-1.3,0.1c-0.5-0.2-0.9-0.6-1.3-1.2
			C703.9,241.3,703.7,240.8,703.6,240.3z"/>
		<path class="st45" d="M721.8,247.4c-0.2,1-0.9,1.8-2,2.4c-1.9,1-2.8,1.5-4.7,2.6c-0.4-0.7-0.6-1.1-1-1.8c0.4-0.2,0.6-0.3,1-0.5
			c-0.5,0-0.9-0.2-1.4-0.6c-0.4-0.3-0.8-0.8-1.2-1.4s-0.6-1.2-0.7-1.8c-0.1-0.6,0-1.1,0.2-1.6c0.2-0.5,0.5-0.8,1-1.1
			c0.7-0.4,1.4-0.5,2.2-0.2c0.8,0.3,1.5,1.1,2.2,2.3c0.5,0.9,0.8,1.3,1.3,2.2c0,0,0.1,0,0.1-0.1c0.6-0.3,0.9-0.7,1-1.3
			c0.1-0.5-0.1-1.1-0.5-1.9c-0.3-0.5-0.6-0.9-1-1.3c-0.4-0.4-0.8-0.7-1.3-0.8c0.3-0.6,0.5-0.9,0.9-1.6c0.6,0.3,1.1,0.6,1.7,1.2
			c0.5,0.5,1,1.2,1.4,1.9C721.7,245.3,722,246.4,721.8,247.4z M722.5,244c0-0.3,0-0.6,0-1c0-0.2,0-0.4,0-0.6c0-0.2,0-0.3-0.1-0.4
			c-0.1-0.2-0.3-0.4-0.6-0.4c-0.2-0.1-0.5,0-0.8,0.1c-0.3-0.4-0.4-0.6-0.6-1.1c0.6-0.3,1.2-0.5,1.7-0.4c0.5,0.1,1,0.4,1.3,0.9
			c0.2,0.3,0.2,0.5,0.3,0.8c0,0.3,0,0.6,0,1c0,0.2,0,0.4,0,0.6c0,0.2,0,0.3,0.1,0.4c0.1,0.2,0.3,0.4,0.5,0.4c0.2,0.1,0.5,0,0.8-0.1
			c0.3,0.4,0.4,0.7,0.6,1.1c-0.6,0.3-1.2,0.4-1.7,0.3c-0.5-0.1-1-0.4-1.2-1C722.6,244.5,722.5,244.2,722.5,244z M715.2,248.8
			c0.4,0.3,0.9,0.4,1.4,0.3c0.4-0.2,0.6-0.3,0.9-0.5c-0.5-0.8-0.7-1.2-1.2-2c-0.7-1.1-1.3-1.5-2-1.1c-0.3,0.2-0.5,0.5-0.5,0.9
			c0,0.4,0.1,0.8,0.4,1.3C714.4,248.1,714.7,248.5,715.2,248.8z"/>
		<path class="st45" d="M717.7,256.3c0-0.9,0.2-1.7,0.6-2.4c0.4-0.7,1-1.3,1.8-1.7s1.6-0.6,2.4-0.5c0.8,0.1,1.6,0.4,2.3,0.9
			c0.7,0.5,1.3,1.3,1.8,2.2c0.5,0.9,0.7,1.8,0.7,2.7s-0.2,1.7-0.7,2.4c-0.4,0.7-1.1,1.2-1.9,1.6s-1.6,0.5-2.5,0.4
			c-0.8-0.1-1.6-0.4-2.3-0.9c-0.7-0.5-1.3-1.2-1.7-2.1C718,258,717.7,257.1,717.7,256.3z M721.6,259.5c0.7,0.3,1.4,0.2,2.2-0.2
			c0.8-0.4,1.3-0.9,1.5-1.6c0.2-0.7,0.2-1.5-0.2-2.2c-0.4-0.8-0.9-1.3-1.7-1.5c-0.7-0.2-1.5-0.2-2.2,0.2c-0.8,0.4-1.2,1-1.5,1.7
			c-0.2,0.7-0.1,1.4,0.2,2.2C720.4,258.8,720.9,259.3,721.6,259.5z"/>
		<path class="st45" d="M738.9,274.1c-4.8,1.7-7.2,2.6-11.9,4.4c-0.3-0.8-0.4-1.2-0.7-2c0.4-0.2,0.7-0.3,1.1-0.4
			c-0.5-0.2-1-0.5-1.4-0.9c-0.4-0.4-0.7-0.9-1-1.5c-0.3-0.8-0.5-1.7-0.4-2.5s0.4-1.6,0.9-2.2c0.5-0.7,1.2-1.2,2-1.5
			c0.8-0.4,1.7-0.5,2.5-0.4c0.8,0.1,1.6,0.5,2.2,1c0.6,0.6,1.2,1.3,1.5,2.2c0.2,0.6,0.4,1.2,0.4,1.8c0,0.6-0.1,1.1-0.4,1.6
			c1.8-0.7,2.6-1,4.4-1.7C738.4,272.8,738.6,273.2,738.9,274.1z M727.6,274.4c0.4,0.3,0.8,0.5,1.3,0.6c0.5,0.1,1,0,1.5-0.2
			c0.5-0.2,1-0.5,1.3-0.9c0.3-0.4,0.5-0.8,0.6-1.3s0-1-0.2-1.5c-0.2-0.5-0.5-0.9-0.9-1.3c-0.4-0.3-0.8-0.5-1.3-0.6
			c-0.5-0.1-1,0-1.5,0.2c-0.5,0.2-0.9,0.5-1.2,0.9c-0.3,0.4-0.5,0.8-0.5,1.3c-0.1,0.5,0,1,0.2,1.5S727.3,274.1,727.6,274.4z"/>
		<path class="st45" d="M734.4,288.6c-0.9-2.9-1.3-4.4-2.3-7.3c-0.6,0.3-1,0.8-1.2,1.5c-0.2,0.7-0.2,1.4,0.1,2.2
			c0.3,1,0.9,1.7,1.7,2.2c-0.4,0.6-0.5,0.9-0.9,1.5c-0.6-0.3-1.1-0.7-1.5-1.2c-0.4-0.6-0.8-1.2-1-2c-0.3-1-0.4-1.9-0.3-2.8
			c0.1-0.9,0.4-1.7,1-2.3c0.5-0.6,1.2-1.1,2.1-1.4c0.8-0.3,1.7-0.4,2.5-0.2c0.8,0.2,1.5,0.6,2.2,1.2c0.6,0.6,1.1,1.4,1.4,2.3
			c0.3,0.9,0.4,1.8,0.2,2.7c-0.1,0.8-0.5,1.6-1.1,2.2c-0.6,0.6-1.3,1-2.2,1.3C734.9,288.5,734.7,288.6,734.4,288.6z M735.3,281.2
			c-0.5-0.4-1.2-0.5-1.8-0.4c0.7,2.1,1.1,3.2,1.7,5.3c0.6-0.3,1-0.7,1.3-1.3c0.2-0.6,0.2-1.3,0-2
			C736.2,282.1,735.8,281.6,735.3,281.2z"/>
		<path class="st45" d="M733.8,299c0.3-1.1,0.8-2.1,1.6-2.9c0.8-0.8,1.7-1.4,2.8-1.6c1.1-0.3,2.2-0.3,3.3,0.1c1.1,0.4,2,1,2.7,1.9
			c0.8,0.9,1.3,2.1,1.6,3.4c0.2,1.1,0.3,2.1,0.1,3c-0.2,1-0.5,1.8-1,2.5c-0.7-0.5-1-0.8-1.6-1.3c0.7-1.1,0.9-2.4,0.6-3.7
			c-0.2-0.9-0.6-1.6-1.1-2.3c-0.5-0.6-1.1-1-1.8-1.3c-0.7-0.2-1.5-0.3-2.3-0.1c-0.8,0.2-1.4,0.6-2,1.1c-0.5,0.5-0.9,1.2-1.1,1.9
			c-0.2,0.8-0.2,1.6,0,2.4c0.3,1.3,1,2.3,2.1,3c-0.4,0.7-0.6,1.1-1,1.8c-0.8-0.5-1.4-1.1-1.9-1.8c-0.5-0.8-0.9-1.7-1.1-2.7
			C733.5,301.2,733.5,300.1,733.8,299z"/>
		<path class="st45" d="M736.4,311.5c0.3-1.1,0.9-2,1.7-2.8s1.8-1.2,2.9-1.5s2.2-0.1,3.3,0.3s1.9,1.1,2.6,2.1c0.7,1,1.2,2.2,1.4,3.5
			s0.1,2.6-0.3,3.8c-0.4,1.2-1,2.1-1.9,2.8c-0.9,0.7-1.9,1.1-3,1.3c-1.2,0.1-2.2,0-3.2-0.5c-1-0.5-1.8-1.2-2.5-2.2
			c-0.7-1-1.1-2.1-1.3-3.3C736,313.8,736.1,312.7,736.4,311.5z M739,317c0.4,0.6,1,1.1,1.7,1.4c0.7,0.3,1.4,0.4,2.2,0.3
			c0.8-0.1,1.5-0.4,2.1-0.9c0.6-0.5,1-1.1,1.3-1.8c0.3-0.8,0.3-1.6,0.2-2.4c-0.1-0.9-0.4-1.6-0.9-2.3c-0.5-0.6-1.1-1.1-1.8-1.4
			c-0.7-0.3-1.4-0.4-2.2-0.2c-0.8,0.1-1.5,0.5-2,1c-0.6,0.5-1,1.1-1.2,1.8c-0.2,0.7-0.3,1.5-0.2,2.4
			C738.2,315.7,738.5,316.4,739,317z"/>
		<path class="st45" d="M737.5,329.6c-0.5,0-0.7,0.1-1.2,0.1c-0.2-2.4-0.3-3.7-0.5-6.1c0.4,0,0.6-0.1,1-0.1c1.2,1.2,1.8,1.8,3,3
			c0.4,0.3,0.6,0.6,0.8,0.7s0.4,0.2,0.6,0.2c0.3,0,0.5-0.2,0.6-0.5c0.1-0.3,0.2-0.7,0.1-1.2c0-0.4-0.1-0.8-0.3-1.1
			c-0.2-0.3-0.4-0.6-0.6-0.7c0.3-0.5,0.4-0.7,0.6-1.2c0.4,0.3,0.8,0.7,1.1,1.2c0.3,0.5,0.4,1.2,0.5,1.9c0.1,1,0,1.8-0.4,2.4
			c-0.3,0.6-0.8,0.9-1.5,0.9c-0.4,0-0.7,0-1-0.2c-0.3-0.2-0.7-0.5-1.2-1c-0.7-0.8-1.1-1.2-1.9-1.9
			C737.3,327.3,737.3,328.1,737.5,329.6z"/>
	</g>
</g>
<g>
	<g>
		<path class="st45" d="M687.7,531.8c1.7-0.3,2.6-0.4,4.3-0.7c0-0.1,0.1-0.3,0.2-0.5c0.5-1,0.8-1.6,1.3-2.6
			c-1.3-0.6-1.9-0.9-3.1-1.5c0.4-0.8,0.6-1.3,1-2.1c4.3,2.1,6.5,3.1,10.8,5.2c-1,2-1.5,3-2.5,5c-0.5,1-1.2,1.9-1.9,2.5
			c-0.7,0.6-1.5,0.9-2.2,1c-0.8,0.1-1.6-0.1-2.3-0.5c-0.8-0.4-1.4-1-1.7-1.7c-0.3-0.7-0.4-1.6-0.3-2.5c-1.9,0.3-2.9,0.5-4.9,0.7
			C687,533.1,687.2,532.7,687.7,531.8z M696.4,535.5c0.6-0.3,1.2-0.9,1.7-1.9c0.5-1,0.8-1.6,1.3-2.6c-1.7-0.8-2.6-1.3-4.3-2.1
			c-0.5,1-0.8,1.5-1.3,2.5c-0.5,0.9-0.7,1.7-0.6,2.4c0.1,0.7,0.5,1.2,1.2,1.6S695.8,535.8,696.4,535.5z"/>
		<path class="st45" d="M684.1,545.7c1.6-2.6,2.4-3.9,4-6.6c-0.6-0.2-1.3-0.2-1.9,0.1c-0.6,0.3-1.1,0.8-1.6,1.5
			c-0.5,0.9-0.7,1.8-0.5,2.8c-0.7,0.1-1.1,0.2-1.8,0.3c-0.2-0.6-0.2-1.3-0.1-2c0.1-0.7,0.4-1.4,0.8-2.1c0.5-0.9,1.2-1.6,1.9-2.1
			c0.8-0.5,1.5-0.8,2.4-0.8c0.8,0,1.7,0.2,2.4,0.6c0.8,0.4,1.4,1,1.8,1.8c0.4,0.7,0.6,1.5,0.5,2.4s-0.3,1.8-0.8,2.6
			c-0.5,0.8-1.1,1.5-1.9,1.9c-0.7,0.5-1.5,0.7-2.4,0.7c-0.8,0-1.6-0.3-2.4-0.8C684.4,546,684.3,545.9,684.1,545.7z M690.2,541.5
			c-0.1-0.7-0.4-1.2-0.9-1.6c-1.1,1.9-1.7,2.9-2.9,4.8c0.6,0.3,1.2,0.3,1.8,0.1c0.6-0.2,1.1-0.7,1.5-1.3
			C690.1,542.8,690.3,542.1,690.2,541.5z"/>
		<path class="st45" d="M684.6,560.7c-4.1-3-6.2-4.5-10.3-7.4c0.5-0.7,0.8-1,1.2-1.8c0.4,0.3,0.6,0.4,1,0.7c-0.1-0.6-0.1-1.1,0-1.7
			c0.1-0.6,0.4-1.1,0.8-1.7c0.5-0.8,1.1-1.3,1.9-1.7c0.7-0.4,1.5-0.6,2.3-0.6c0.8,0,1.6,0.3,2.4,0.8c0.8,0.5,1.3,1.1,1.7,1.9
			c0.4,0.7,0.5,1.6,0.4,2.4c-0.1,0.9-0.4,1.7-1,2.5c-0.4,0.5-0.8,1-1.3,1.3c-0.5,0.3-1,0.5-1.6,0.6c1.5,1.1,2.3,1.6,3.8,2.7
			C685.4,559.5,685.1,559.9,684.6,560.7z M678.1,551.5c-0.1,0.5,0,1,0.2,1.4c0.2,0.5,0.5,0.9,1,1.2c0.5,0.3,1,0.5,1.5,0.5
			c0.5,0,1-0.1,1.4-0.3c0.4-0.2,0.8-0.6,1.1-1c0.3-0.5,0.5-0.9,0.6-1.4c0.1-0.5,0-1-0.2-1.4c-0.2-0.5-0.6-0.8-1-1.2
			c-0.5-0.3-1-0.5-1.5-0.5c-0.5,0-1,0.1-1.4,0.3c-0.4,0.2-0.8,0.6-1.1,1S678.1,551,678.1,551.5z"/>
		<path class="st45" d="M673.9,568.7c-2.8-2.3-4.2-3.5-7-5.8c0.5-0.7,0.8-1,1.3-1.6c0.4,0.3,0.5,0.4,0.9,0.7
			c-0.1-0.5-0.1-1.1,0.1-1.6s0.4-1.1,0.8-1.6c0.8-1,1.7-1.6,2.6-1.8c1-0.2,2,0.1,3.1,0.9c1.7,1.2,2.5,1.9,4.2,3.1
			c-0.6,0.8-0.8,1.1-1.4,1.9c-1.6-1.2-2.3-1.8-3.9-3c-0.7-0.5-1.3-0.7-1.8-0.6c-0.6,0.1-1.1,0.4-1.5,0.9c-0.5,0.6-0.7,1.3-0.6,1.9
			c0.1,0.7,0.5,1.3,1.1,1.8c1.4,1.2,2.2,1.7,3.6,2.9C674.8,567.6,674.5,568,673.9,568.7z"/>
		<path class="st45" d="M664.2,566.7c0.8-0.3,1.6-0.4,2.5-0.3c0.8,0.1,1.6,0.5,2.3,1.1s1.2,1.3,1.4,2.1c0.2,0.8,0.3,1.6,0,2.5
			c-0.2,0.9-0.7,1.7-1.4,2.5c-0.7,0.7-1.4,1.3-2.1,1.6c-0.8,0.3-1.5,0.3-2.3,0.2c0.2-0.8,0.3-1.2,0.5-2c0.5,0.1,1,0,1.4-0.1
			c0.4-0.2,0.8-0.5,1.2-0.8c0.6-0.6,0.9-1.4,0.8-2.1c0-0.8-0.4-1.4-1-2c-0.7-0.6-1.4-0.8-2.1-0.7c-0.8,0.1-1.4,0.4-2,1.1
			c-0.3,0.4-0.6,0.8-0.7,1.2c-0.1,0.4-0.1,0.9,0,1.4c-0.8,0.3-1.1,0.4-1.9,0.6c-0.2-0.7-0.3-1.5-0.1-2.3c0.2-0.8,0.6-1.5,1.2-2.2
			C662.7,567.6,663.4,567.1,664.2,566.7z M661.1,564.2c0.2,0.4,0.3,0.6,0.5,1c-0.4,0.2-0.7,0.4-1,0.7c-0.4,0.5-0.5,0.8-0.2,1.1
			c0.1,0.1,0.3,0.1,0.5,0.1c0.2,0,0.4-0.2,0.6-0.4c0.1-0.2,0.2-0.2,0.4-0.4c0.4,0.6,0.6,0.9,1,1.5c-0.3,0.4-0.5,0.5-0.8,0.9
			c-0.2-0.3-0.3-0.5-0.5-0.8c-0.4,0.3-0.8,0.5-1.1,0.5c-0.4,0-0.7-0.1-1-0.4c-0.4-0.3-0.5-0.8-0.4-1.3c0.1-0.5,0.3-1,0.8-1.6
			C660.2,564.7,660.7,564.4,661.1,564.2z"/>
		<path class="st45" d="M659,583.6c-1,0.1-2-0.4-2.9-1.3c-1.5-1.5-2.2-2.3-3.7-3.8c0.6-0.6,0.9-0.9,1.5-1.5c0.3,0.3,0.5,0.5,0.8,0.8
			c-0.1-0.5,0-1,0.2-1.5c0.2-0.5,0.6-1,1.1-1.5s1-0.9,1.6-1.1c0.5-0.2,1.1-0.3,1.6-0.2c0.5,0.1,0.9,0.3,1.3,0.6
			c0.6,0.6,0.9,1.3,0.8,2.1c-0.1,0.8-0.6,1.7-1.6,2.7c-0.7,0.7-1.1,1.1-1.8,1.8c0,0,0.1,0.1,0.1,0.1c0.4,0.5,0.9,0.7,1.5,0.6
			c0.5,0,1.1-0.4,1.7-0.9c0.4-0.4,0.7-0.8,1-1.3c0.3-0.5,0.4-1,0.5-1.4c0.7,0.2,1.1,0.3,1.8,0.4c-0.1,0.6-0.3,1.3-0.7,1.9
			c-0.4,0.7-0.8,1.3-1.4,1.9C661.1,583,660,583.5,659,583.6z M662.5,583.4c0.2-0.1,0.6-0.2,1-0.2c0.2,0,0.4-0.1,0.6-0.1
			c0.1,0,0.3-0.1,0.4-0.2c0.2-0.2,0.3-0.4,0.3-0.7c0-0.2-0.1-0.5-0.4-0.7c0.4-0.4,0.5-0.5,0.9-0.9c0.5,0.5,0.8,1,0.8,1.6
			c0,0.6-0.2,1.1-0.6,1.5c-0.2,0.2-0.5,0.4-0.7,0.5c-0.2,0.1-0.6,0.2-1,0.3c-0.2,0-0.4,0.1-0.6,0.1s-0.3,0.1-0.4,0.2
			c-0.2,0.2-0.3,0.4-0.3,0.6c0,0.2,0.1,0.5,0.3,0.7c-0.4,0.4-0.5,0.5-0.9,0.9c-0.5-0.5-0.7-1-0.7-1.6c0-0.5,0.2-1,0.6-1.5
			C662,583.6,662.3,583.5,662.5,583.4z M656,577.6c-0.1,0.5-0.1,0.9,0.1,1.4c0.3,0.3,0.4,0.5,0.7,0.8c0.7-0.7,1-1,1.7-1.7
			c0.9-0.9,1.1-1.7,0.5-2.2c-0.3-0.3-0.6-0.4-1-0.3c-0.4,0.1-0.8,0.3-1.2,0.7C656.4,576.6,656.1,577.1,656,577.6z"/>
		<path class="st45" d="M649.4,582c0.8-0.2,1.7-0.2,2.5,0c0.8,0.2,1.5,0.7,2.1,1.3c0.6,0.7,1,1.4,1.2,2.2c0.2,0.8,0.1,1.7-0.2,2.5
			c-0.3,0.8-0.9,1.6-1.6,2.3c-0.8,0.7-1.6,1.1-2.5,1.4c-0.9,0.2-1.7,0.2-2.5,0c-0.8-0.2-1.5-0.7-2.1-1.4c-0.6-0.7-0.9-1.4-1.1-2.3
			c-0.1-0.8,0-1.6,0.3-2.5c0.3-0.8,0.8-1.5,1.6-2.2C647.8,582.7,648.6,582.2,649.4,582z M647.3,586.6c-0.1,0.8,0.2,1.5,0.7,2.1
			c0.6,0.6,1.2,1,2,1c0.8,0,1.5-0.2,2.1-0.8s1-1.2,1-2s-0.2-1.4-0.8-2.1c-0.6-0.6-1.2-1-2-1c-0.7,0-1.4,0.2-2,0.8
			S647.4,585.9,647.3,586.6z"/>
		<path class="st45" d="M637.7,607.1c-2.9-4.1-4.4-6.2-7.3-10.4c0.7-0.5,1-0.7,1.7-1.2c0.3,0.4,0.4,0.6,0.7,1c0-0.6,0.2-1.1,0.5-1.6
			c0.3-0.5,0.7-0.9,1.2-1.3c0.7-0.5,1.5-0.9,2.3-1c0.8-0.1,1.6-0.1,2.4,0.2c0.8,0.3,1.4,0.8,2,1.5c0.6,0.7,0.9,1.5,1,2.3
			c0.1,0.8,0,1.6-0.4,2.4c-0.4,0.8-0.9,1.5-1.7,2c-0.5,0.4-1.1,0.7-1.6,0.8c-0.6,0.2-1.1,0.2-1.7,0.1c1.1,1.5,1.7,2.3,2.8,3.8
			C638.9,606.3,638.5,606.6,637.7,607.1z M634.5,596.3c-0.2,0.4-0.3,0.9-0.2,1.4c0.1,0.5,0.2,1,0.6,1.4c0.3,0.5,0.7,0.8,1.2,1
			c0.5,0.2,0.9,0.3,1.4,0.2c0.5-0.1,1-0.3,1.4-0.6c0.4-0.3,0.8-0.7,1-1.2c0.2-0.5,0.3-0.9,0.2-1.4c-0.1-0.5-0.3-1-0.6-1.4
			c-0.3-0.5-0.8-0.8-1.2-1c-0.5-0.2-0.9-0.2-1.4-0.2c-0.5,0.1-0.9,0.3-1.4,0.6C635.1,595.5,634.7,595.9,634.5,596.3z"/>
		<path class="st45" d="M622.6,606.6c2.6-1.6,3.9-2.4,6.4-4.1c-0.5-0.5-1.1-0.7-1.8-0.7c-0.7,0-1.4,0.2-2.1,0.7
			c-0.9,0.6-1.4,1.3-1.7,2.2c-0.7-0.2-1-0.3-1.7-0.5c0.1-0.6,0.4-1.2,0.8-1.8c0.4-0.6,1-1.1,1.7-1.5c0.9-0.6,1.8-0.9,2.6-1
			c0.9-0.1,1.7,0,2.5,0.3c0.8,0.3,1.4,0.9,1.9,1.6c0.5,0.7,0.8,1.5,0.8,2.3c0,0.8-0.1,1.6-0.6,2.4c-0.4,0.8-1.1,1.4-1.9,2
			c-0.8,0.5-1.7,0.8-2.5,0.9c-0.9,0.1-1.7-0.1-2.4-0.5c-0.7-0.4-1.4-1-1.8-1.8C622.8,607,622.7,606.9,622.6,606.6z M629.9,605.5
			c0.2-0.6,0.2-1.2-0.1-1.9c-1.8,1.2-2.8,1.9-4.7,3c0.4,0.5,1,0.8,1.6,0.9c0.6,0.1,1.3-0.1,1.9-0.5
			C629.3,606.6,629.7,606.1,629.9,605.5z"/>
		<path class="st45" d="M612.4,608.8c1.2,0,2.2,0.2,3.2,0.7c1,0.5,1.8,1.3,2.3,2.3c0.6,1,0.8,2.1,0.8,3.2c-0.1,1.1-0.5,2.2-1.1,3.2
			c-0.7,1-1.6,1.8-2.8,2.4c-1,0.5-1.9,0.8-2.9,0.9c-1,0.1-1.9,0-2.7-0.3c0.3-0.8,0.5-1.1,0.8-1.9c1.3,0.4,2.5,0.3,3.8-0.4
			c0.8-0.4,1.4-1,1.9-1.6c0.5-0.7,0.7-1.4,0.7-2.1c0-0.8-0.1-1.5-0.5-2.2c-0.4-0.7-0.9-1.2-1.6-1.6c-0.6-0.4-1.4-0.5-2.1-0.5
			c-0.8,0-1.5,0.2-2.3,0.6c-1.2,0.6-2,1.6-2.4,2.8c-0.8-0.2-1.2-0.3-2-0.5c0.2-0.8,0.7-1.6,1.3-2.3c0.6-0.7,1.4-1.3,2.3-1.8
			C610.2,609.1,611.3,608.8,612.4,608.8z"/>
		<path class="st45" d="M601,614.6c1.2,0,2.2,0.4,3.2,0.9s1.7,1.4,2.2,2.5c0.5,1,0.7,2.1,0.5,3.2c-0.1,1.1-0.6,2.1-1.4,3.1
			c-0.8,0.9-1.8,1.7-3,2.2c-1.3,0.6-2.5,0.8-3.7,0.7c-1.2-0.1-2.3-0.4-3.2-1.1c-0.9-0.6-1.6-1.5-2-2.6c-0.4-1.1-0.5-2.2-0.3-3.3
			c0.2-1.1,0.7-2.1,1.4-3c0.8-0.9,1.7-1.6,2.9-2.1C598.7,614.7,599.8,614.5,601,614.6z M596.4,618.5c-0.5,0.6-0.8,1.3-0.9,2
			c-0.1,0.7,0,1.5,0.3,2.2c0.3,0.7,0.8,1.3,1.4,1.8c0.6,0.4,1.3,0.7,2.1,0.7c0.8,0.1,1.6-0.1,2.4-0.5c0.8-0.4,1.5-0.8,2-1.5
			c0.5-0.6,0.8-1.3,0.9-2.1c0.1-0.8,0-1.5-0.4-2.2c-0.3-0.7-0.8-1.3-1.5-1.7c-0.6-0.4-1.3-0.6-2.1-0.7c-0.8,0-1.5,0.1-2.3,0.4
			S596.9,617.9,596.4,618.5z"/>
		<path class="st45" d="M583.8,620.3c-0.2-0.5-0.2-0.7-0.4-1.1c2.3-0.8,3.5-1.2,5.7-2.1c0.1,0.4,0.2,0.5,0.3,0.9
			c-0.8,1.5-1.2,2.2-2.1,3.6c-0.2,0.4-0.4,0.8-0.5,1c-0.1,0.2-0.1,0.4,0,0.6c0.1,0.3,0.3,0.4,0.6,0.5c0.3,0.1,0.7,0,1.2-0.2
			c0.4-0.1,0.7-0.3,1-0.6c0.3-0.2,0.4-0.5,0.5-0.8c0.5,0.1,0.8,0.2,1.4,0.3c-0.2,0.5-0.4,0.9-0.9,1.3c-0.4,0.4-1,0.7-1.7,1
			c-0.9,0.3-1.7,0.4-2.4,0.2c-0.7-0.2-1.1-0.6-1.3-1.2c-0.1-0.3-0.1-0.7-0.1-1.1c0.1-0.4,0.3-0.9,0.7-1.5c0.5-0.9,0.8-1.4,1.4-2.3
			C586,619.6,585.3,619.8,583.8,620.3z"/>
	</g>
</g>
<g>
	<g>
		<path class="st45" d="M368,635.9c-0.8,3.1-1.2,4.6-1.9,7.7c2.3-2.1,3.4-3.2,5.6-5.4c0.4,0.1,0.6,0.1,1,0.2c1,2.9,1.6,4.3,2.7,7.2
			c0.6-3.1,0.9-4.6,1.6-7.7c0.9,0.2,1.3,0.3,2.1,0.4c-0.9,4.7-1.4,7.1-2.3,11.8c-0.8-0.2-1.2-0.2-2-0.4c-1.4-3.5-2.1-5.3-3.3-8.8
			c-2.6,2.7-4,4-6.7,6.5c-0.8-0.2-1.2-0.3-1.9-0.5c1.2-4.6,1.8-7,3.1-11.6C366.7,635.6,367.1,635.7,368,635.9z"/>
		<path class="st45" d="M353.9,640.4c-0.5-0.8-0.6-1.9-0.2-3.1c0.7-2,1-3.1,1.7-5.1c0.8,0.3,1.2,0.4,2,0.6c-0.1,0.4-0.2,0.6-0.3,1.1
			c0.4-0.3,0.8-0.5,1.4-0.5c0.5-0.1,1.1,0,1.8,0.2c0.7,0.2,1.2,0.5,1.7,0.9c0.4,0.4,0.7,0.8,0.9,1.3c0.2,0.5,0.2,1,0,1.5
			c-0.2,0.8-0.7,1.3-1.5,1.6c-0.8,0.3-1.8,0.3-3.1-0.1c-1-0.3-1.4-0.4-2.4-0.7c0,0.1,0,0.1,0,0.1c-0.2,0.6-0.1,1.1,0.1,1.6
			c0.3,0.4,0.8,0.8,1.6,1c0.5,0.2,1.1,0.2,1.6,0.2c0.6,0,1-0.1,1.5-0.3c0.2,0.7,0.3,1,0.4,1.7c-0.6,0.2-1.3,0.3-2,0.3
			c-0.7,0-1.5-0.1-2.3-0.4C355.4,641.9,354.4,641.3,353.9,640.4z M357.8,634.9c-0.5,0.1-0.9,0.3-1.2,0.7c-0.1,0.4-0.2,0.6-0.3,1
			c0.9,0.3,1.3,0.4,2.2,0.7c1.2,0.4,2,0.2,2.2-0.6c0.1-0.4,0-0.7-0.2-1c-0.2-0.3-0.6-0.5-1.2-0.7
			C358.8,634.8,358.3,634.8,357.8,634.9z"/>
		<path class="st45" d="M344.4,638.1c0.3-0.8,0.4-1.1,0.7-1.9c0.2,0.1,0.3,0.2,0.5,0.2c0.8,0.3,1.6,0.3,2.2,0
			c0.6-0.3,1.1-0.9,1.4-1.7c0.6-1.7,0.9-2.5,1.5-4.2c0.8,0.3,1.2,0.4,2.1,0.7c-1.2,3.5-1.8,5.2-3,8.6c-0.8-0.3-1.2-0.4-2.1-0.7
			c0.2-0.5,0.3-0.8,0.5-1.3C347.2,638.7,346,638.7,344.4,638.1z"/>
		<path class="st45" d="M340.9,631c0.8-0.3,1.3-0.5,2.1-0.8c0.4-0.9,0.5-1.3,0.9-2.2c0.8,0.3,1.2,0.5,2,0.8
			c-1.8,4.7-2.8,7.1-4.6,11.8c-0.9-0.3-1.3-0.5-2.2-0.9c1.1-2.8,1.7-4.3,2.9-7.1c-2.3,0.8-3.5,1.2-5.9,2c-1-0.4-1.5-0.7-2.5-1.1
			c2.1-0.7,3.2-1.1,5.2-1.9c-0.8-2.6-1.1-4-1.8-6.6c1,0.4,1.4,0.6,2.4,1.1C340,628.1,340.3,629.1,340.9,631z"/>
		<path class="st45" d="M326.5,624.3c2.6,1.4,4,2,6.7,3.3c0.2-0.7,0.1-1.3-0.2-1.9c-0.3-0.6-0.8-1.1-1.6-1.4
			c-0.9-0.4-1.8-0.5-2.7-0.2c-0.2-0.7-0.3-1-0.5-1.7c0.6-0.2,1.2-0.3,1.9-0.3c0.7,0.1,1.4,0.3,2.1,0.6c0.9,0.4,1.6,1,2.2,1.7
			c0.5,0.7,0.9,1.4,0.9,2.3c0.1,0.8,0,1.7-0.4,2.5c-0.4,0.8-0.9,1.5-1.6,1.9c-0.7,0.5-1.5,0.7-2.3,0.8c-0.9,0-1.7-0.2-2.6-0.6
			c-0.9-0.4-1.5-1-2-1.6c-0.5-0.7-0.8-1.4-0.8-2.3c0-0.8,0.2-1.7,0.6-2.5C326.3,624.7,326.4,624.5,326.5,624.3z M331.1,630
			c0.6-0.2,1.1-0.5,1.5-1.1c-2-0.9-2.9-1.4-4.9-2.4c-0.2,0.6-0.2,1.2,0.1,1.8c0.3,0.6,0.7,1,1.4,1.4
			C329.9,630,330.5,630.1,331.1,630z"/>
		<path class="st45" d="M321.3,617.6c0.3-0.1,0.7,0,1,0.1c0.4,0.1,0.7,0.2,1.1,0.4c0.9,0.5,1.5,1.1,1.7,1.8c0.2,0.7,0.1,1.5-0.3,2.4
			c-0.8,1.6-1.2,2.3-2.1,3.9c0.6,0.3,0.8,0.4,1.4,0.7c-0.3,0.6-0.5,0.9-0.8,1.5c-0.6-0.3-0.9-0.4-1.4-0.7c-0.4,0.7-0.6,1.1-1,1.8
			c-0.8-0.4-1.2-0.6-2-1.1c0.4-0.7,0.6-1.1,1-1.8c-0.9-0.5-1.4-0.8-2.3-1.3c0.3-0.6,0.5-0.9,0.8-1.5c0.9,0.5,1.3,0.8,2.3,1.2
			c0.8-1.5,1.3-2.3,2.1-3.8c0.2-0.4,0.3-0.7,0.2-1.1c-0.1-0.3-0.3-0.6-0.7-0.8c-0.4-0.2-0.8-0.3-1.3-0.3
			C321.2,618.6,321.2,618.3,321.3,617.6z"/>
		<path class="st45" d="M314.4,625.8c0.1,0.4,0.1,0.7-0.1,1c-0.2,0.3-0.5,0.5-0.8,0.6c-0.4,0.1-0.7,0-1.1-0.2
			c-0.4-0.2-0.6-0.5-0.7-0.8c-0.1-0.3-0.1-0.7,0.1-1c0.2-0.3,0.5-0.5,0.8-0.6c0.4-0.1,0.7,0,1.1,0.2
			C314,625.2,314.3,625.4,314.4,625.8z M315.4,624.2c-0.8-0.5-1.2-0.7-2-1.2c1.9-3.1,2.8-4.7,4.7-7.9c0.7,0.4,1.1,0.7,1.9,1.1
			C318.2,619.5,317.3,621.1,315.4,624.2z"/>
		<path class="st45" d="M304.3,616.2c-0.2-1,0-2,0.8-3.1c1.2-1.7,1.8-2.6,3-4.3c0.7,0.5,1.1,0.7,1.8,1.2c-1.1,1.7-1.7,2.5-2.8,4.1
			c-0.4,0.7-0.6,1.3-0.5,1.8c0.1,0.6,0.5,1,1.1,1.4c0.7,0.5,1.4,0.6,2,0.5c0.7-0.1,1.2-0.6,1.7-1.3c1-1.6,1.5-2.3,2.5-3.9
			c0.7,0.5,1.1,0.7,1.8,1.1c-1.9,3.1-2.9,4.7-4.8,7.8c-0.7-0.5-1.1-0.7-1.8-1.1c0.3-0.4,0.4-0.6,0.6-1c-0.5,0.2-1.1,0.2-1.7,0.1
			c-0.6-0.1-1.2-0.4-1.8-0.8C305.2,618,304.6,617.2,304.3,616.2z"/>
		<path class="st45" d="M292.7,608.9c1.9-2.4,2.9-3.7,4.8-6.1c2-2.5,4.3-2.8,6.9-0.8c0.7,0.5,1.3,1.1,1.8,1.7c0.5,0.6,0.8,1.3,1,1.9
			c-0.7,0.3-1,0.5-1.7,0.8c-0.1-0.5-0.4-1-0.8-1.5c-0.4-0.5-0.8-1-1.3-1.3c-0.8-0.6-1.5-0.9-2.2-0.8c-0.7,0.1-1.3,0.5-1.8,1.2
			c-0.1,0.2-0.2,0.2-0.3,0.4c0.5-0.1,1.1-0.1,1.6,0.1c0.6,0.2,1.1,0.4,1.6,0.8c0.7,0.5,1.2,1.1,1.6,1.9c0.4,0.7,0.5,1.5,0.5,2.3
			c0,0.8-0.3,1.5-0.8,2.3c-0.5,0.7-1.1,1.2-1.8,1.5c-0.7,0.3-1.5,0.4-2.3,0.2c-0.8-0.1-1.6-0.5-2.3-1c-0.6-0.4-1-0.9-1.3-1.4
			c-0.3-0.5-0.5-1.1-0.5-1.7c-0.3,0.4-0.4,0.6-0.7,1C293.7,609.7,293.4,609.4,292.7,608.9z M298.9,605.8c-0.7,0.1-1.3,0.4-1.8,1
			c-0.5,0.6-0.6,1.3-0.5,2c0.1,0.7,0.6,1.3,1.2,1.8c0.7,0.5,1.4,0.7,2.1,0.7c0.7-0.1,1.3-0.4,1.8-1c0.5-0.6,0.6-1.3,0.5-2
			c-0.1-0.7-0.6-1.3-1.2-1.8C300.3,605.9,299.6,605.7,298.9,605.8z"/>
		<path class="st45" d="M275.7,597.9c5-1.9,7.4-2.9,12.2-5c0.7,0.6,1,0.9,1.7,1.5c-1.6,5-2.3,7.5-3.7,12.7c-0.8-0.7-1.2-1-2-1.7
			c1.1-3.9,1.7-5.9,2.9-9.7c-3.7,1.6-5.6,2.4-9.4,3.9C276.8,598.9,276.4,598.5,275.7,597.9z"/>
		<path class="st45" d="M274.8,585.4c2,2.2,3.1,3.2,5.2,5.3c0.4-0.6,0.5-1.2,0.4-1.9c-0.1-0.7-0.5-1.3-1-1.9
			c-0.7-0.7-1.6-1.1-2.5-1.1c0.1-0.7,0.1-1.1,0.1-1.8c0.6,0,1.3,0.1,1.9,0.4c0.6,0.3,1.2,0.7,1.8,1.3c0.7,0.7,1.2,1.5,1.5,2.3
			c0.3,0.8,0.3,1.7,0.1,2.5c-0.2,0.8-0.6,1.5-1.2,2.2c-0.6,0.6-1.3,1.1-2.1,1.3c-0.8,0.2-1.6,0.2-2.4,0s-1.6-0.7-2.3-1.4
			c-0.7-0.7-1.1-1.4-1.4-2.2c-0.2-0.8-0.2-1.6,0-2.4c0.2-0.8,0.7-1.5,1.4-2.2C274.4,585.7,274.6,585.6,274.8,585.4z M277.3,592.3
			c0.6,0.1,1.2-0.1,1.8-0.5c-1.6-1.5-2.3-2.3-3.8-3.9c-0.4,0.5-0.6,1.1-0.5,1.8c0,0.6,0.3,1.2,0.9,1.7
			C276,592,276.6,592.2,277.3,592.3z"/>
		<path class="st45" d="M265.6,583.3c0.6-0.5,0.9-0.8,1.5-1.3c0.1,0.2,0.2,0.3,0.3,0.4c0.6,0.7,1.2,1,1.9,1.1c0.7,0,1.4-0.2,2.1-0.9
			c1.3-1.2,2-1.8,3.3-3c0.6,0.6,0.9,1,1.5,1.6c-2.7,2.5-4,3.7-6.7,6.2c-0.6-0.6-0.9-1-1.5-1.6c0.4-0.4,0.6-0.5,1-0.9
			C267.8,585.1,266.7,584.5,265.6,583.3z"/>
		<path class="st45" d="M255.6,576.5c4-3.1,6-4.7,10.1-7.8c0.5,0.7,0.8,1,1.3,1.7c-0.4,0.3-0.6,0.4-0.9,0.7c0.6,0,1.1,0.2,1.6,0.4
			c0.5,0.3,1,0.7,1.4,1.2c0.6,0.7,0.9,1.4,1.1,2.2c0.2,0.8,0.1,1.6-0.2,2.4c-0.3,0.8-0.8,1.5-1.5,2.1c-0.7,0.6-1.5,1-2.3,1.1
			c-0.8,0.1-1.6,0-2.4-0.3c-0.8-0.3-1.5-0.9-2.1-1.6c-0.4-0.5-0.7-1-0.9-1.6c-0.2-0.5-0.2-1.1-0.1-1.7c-1.5,1.2-2.2,1.8-3.7,2.9
			C256.4,577.6,256.2,577.3,255.6,576.5z M266.2,572.8c-0.4-0.2-0.9-0.2-1.4-0.2c-0.5,0.1-1,0.3-1.4,0.6c-0.4,0.4-0.8,0.8-0.9,1.2
			c-0.2,0.5-0.2,0.9-0.1,1.4c0.1,0.5,0.3,0.9,0.7,1.4c0.3,0.4,0.8,0.7,1.2,0.9c0.5,0.2,0.9,0.2,1.4,0.2c0.5-0.1,1-0.3,1.4-0.7
			c0.4-0.4,0.7-0.8,0.9-1.3c0.2-0.5,0.2-0.9,0.1-1.4c-0.1-0.5-0.3-0.9-0.6-1.3C267.1,573.3,266.7,573,266.2,572.8z"/>
		<path class="st45" d="M255.5,561.5c1.7,2.5,2.6,3.7,4.4,6.2c0.5-0.5,0.7-1.1,0.7-1.8c0-0.7-0.2-1.3-0.7-2
			c-0.6-0.8-1.4-1.4-2.3-1.5c0.2-0.7,0.2-1,0.4-1.7c0.6,0.1,1.3,0.3,1.8,0.7c0.6,0.4,1.1,0.9,1.6,1.6c0.6,0.8,1,1.7,1.1,2.6
			c0.1,0.9,0.1,1.7-0.2,2.5c-0.3,0.8-0.8,1.4-1.5,2c-0.7,0.5-1.5,0.9-2.3,0.9c-0.8,0.1-1.6-0.1-2.4-0.5s-1.5-1-2-1.8
			c-0.6-0.8-0.9-1.6-1-2.4c-0.1-0.8,0-1.6,0.4-2.4c0.4-0.8,0.9-1.4,1.7-1.9C255.1,561.7,255.3,561.6,255.5,561.5z M256.9,568.7
			c0.6,0.2,1.2,0.1,1.8-0.2c-1.3-1.8-1.9-2.7-3.2-4.5c-0.5,0.5-0.8,1-0.8,1.7c0,0.6,0.1,1.3,0.6,1.9
			C255.8,568.1,256.3,568.5,256.9,568.7z"/>
	</g>
</g>
<g>
	<g>
		<path class="st45" d="M168.8,370c5.2,1.9,7.8,2.8,13,4.4c0.1,1,0.2,1.4,0.3,2.4c-4.5,3-6.8,4.6-11.2,8c-0.2-1.1-0.3-1.7-0.5-2.8
			c3.5-2.5,5.2-3.7,8.7-6c-4-1.2-6.1-1.9-10.1-3.3C169,371.6,168.9,371.1,168.8,370z"/>
		<path class="st45" d="M171.9,361.6c0.6-0.9,1.6-1.3,2.9-1.4c2.2-0.1,3.3-0.2,5.5-0.3c0.1,0.9,0.1,1.3,0.1,2.2
			c-0.5,0-0.7,0-1.1,0.1c0.4,0.3,0.8,0.7,1,1.2c0.3,0.5,0.4,1.2,0.5,1.9s0,1.4-0.2,2c-0.2,0.6-0.5,1.1-0.9,1.4
			c-0.4,0.4-0.9,0.6-1.4,0.6c-0.8,0.1-1.6-0.2-2.1-0.8c-0.6-0.6-0.9-1.7-1.1-3.2c-0.1-1.1-0.1-1.6-0.2-2.7c-0.1,0-0.1,0-0.1,0
			c-0.7,0-1.1,0.3-1.5,0.8c-0.3,0.5-0.4,1.1-0.4,2c0.1,0.6,0.2,1.2,0.4,1.7c0.2,0.6,0.5,1,0.8,1.4c-0.6,0.4-0.9,0.7-1.5,1.1
			c-0.4-0.5-0.8-1.1-1.1-1.9c-0.3-0.8-0.5-1.6-0.5-2.4C171.1,363.7,171.3,362.5,171.9,361.6z M178.8,363.3c-0.3-0.4-0.7-0.7-1.2-0.9
			c-0.4,0-0.7,0-1.1,0.1c0.1,1,0.1,1.5,0.2,2.5c0.1,1.4,0.6,2,1.4,2c0.4,0,0.7-0.2,0.9-0.6c0.2-0.4,0.3-0.8,0.2-1.5
			C179.2,364.3,179,363.8,178.8,363.3z"/>
		<path class="st45" d="M167.1,357.4c0-1-0.1-1.5-0.1-2.5c5.2-0.2,7.9-0.2,13.1-0.4c0,0.9,0,1.4,0.1,2.4
			C175,357.1,172.4,357.2,167.1,357.4z"/>
		<path class="st45" d="M179.6,349.6c-0.4,0.8-1,1.5-1.7,1.9c-0.7,0.5-1.6,0.7-2.5,0.7c-0.9,0-1.8-0.2-2.5-0.7
			c-0.7-0.5-1.3-1.1-1.7-2c-0.4-0.9-0.6-1.8-0.6-2.9c0-1.1,0.2-2,0.7-2.9c0.4-0.8,1-1.5,1.8-1.9c0.7-0.4,1.6-0.7,2.5-0.6
			c0.9,0,1.8,0.3,2.5,0.8c0.7,0.5,1.3,1.1,1.7,2c0.4,0.8,0.6,1.7,0.6,2.8C180.2,347.9,180,348.8,179.6,349.6z M177.5,344.7
			c-0.5-0.6-1.2-0.9-2.1-0.9c-0.9,0-1.6,0.2-2.2,0.8c-0.6,0.6-0.8,1.3-0.8,2.2c0,0.9,0.3,1.6,0.8,2.2c0.5,0.6,1.3,0.9,2.1,0.9
			c0.9,0,1.6-0.3,2.1-0.9s0.8-1.3,0.8-2.2S178,345.3,177.5,344.7z"/>
		<path class="st45" d="M171.1,332.8c0.8,0.1,1.3,0.1,2.1,0.2c-0.1,0.2-0.1,0.4-0.1,0.6c-0.1,0.9,0.1,1.7,0.6,2.3
			c0.5,0.6,1.2,0.9,2.1,0.9c1.8,0.1,2.7,0.2,4.6,0.3c-0.1,0.9-0.1,1.4-0.1,2.3c-3.8-0.2-5.7-0.3-9.4-0.5c0-0.9,0.1-1.4,0.1-2.3
			c0.6,0,0.8,0.1,1.4,0.1C171.4,335.8,171,334.5,171.1,332.8z"/>
		<path class="st45" d="M173.9,317.8c0.8-0.7,1.8-0.9,3.2-0.7c2.2,0.4,3.3,0.5,5.5,0.9c-0.1,0.9-0.2,1.3-0.3,2.2
			c-0.5-0.1-0.7-0.1-1.1-0.2c0.4,0.3,0.6,0.8,0.8,1.4c0.1,0.6,0.2,1.2,0.1,1.9s-0.3,1.4-0.6,1.9c-0.3,0.5-0.7,0.9-1.2,1.2
			c-0.5,0.3-1,0.4-1.5,0.3c-0.8-0.1-1.5-0.5-1.9-1.3c-0.4-0.7-0.5-1.8-0.3-3.3c0.1-1.1,0.2-1.6,0.4-2.6c-0.1,0-0.1,0-0.1,0
			c-0.7-0.1-1.2,0-1.6,0.4c-0.4,0.4-0.7,1-0.8,1.8c-0.1,0.6-0.1,1.2,0,1.7c0.1,0.6,0.3,1.1,0.5,1.5c-0.7,0.3-1,0.5-1.7,0.8
			c-0.3-0.6-0.5-1.3-0.6-2.1c-0.1-0.8-0.1-1.6,0-2.5C172.6,319.7,173.1,318.5,173.9,317.8z M180.2,321c-0.2-0.5-0.5-0.9-0.9-1.1
			c-0.4-0.1-0.7-0.1-1.1-0.2c-0.1,1-0.2,1.5-0.4,2.4c-0.2,1.4,0.1,2.1,1,2.2c0.4,0.1,0.7-0.1,1-0.4c0.3-0.3,0.5-0.8,0.5-1.4
			C180.4,322,180.4,321.5,180.2,321z"/>
		<path class="st45" d="M175.9,303.1c3.1,0.7,4.7,1.1,7.8,1.8c3.2,0.8,4.4,2.9,3.7,6.3c-0.2,0.9-0.5,1.8-0.9,2.6
			c-0.4,0.8-0.8,1.4-1.4,1.9c-0.6-0.5-0.9-0.8-1.4-1.3c0.4-0.4,0.8-0.9,1.1-1.5c0.3-0.6,0.6-1.2,0.7-1.9c0.2-1.1,0.2-1.9-0.2-2.5
			c-0.4-0.6-1-1-1.9-1.2c-0.2,0-0.3-0.1-0.5-0.1c0.3,0.5,0.5,1,0.6,1.6c0.1,0.6,0.1,1.2-0.1,1.9c-0.2,0.9-0.5,1.7-1.1,2.4
			c-0.5,0.7-1.2,1.2-1.9,1.5c-0.8,0.3-1.6,0.4-2.5,0.2c-0.9-0.2-1.6-0.5-2.2-1.1c-0.6-0.6-1-1.3-1.2-2.2c-0.2-0.9-0.2-1.8,0-2.8
			c0.2-0.7,0.4-1.4,0.8-2c0.3-0.6,0.8-1,1.3-1.3c-0.5-0.1-0.7-0.2-1.2-0.3C175.6,304.5,175.7,304,175.9,303.1z M181.4,307.7
			c-0.4-0.7-0.9-1.1-1.7-1.3c-0.8-0.2-1.5,0-2.1,0.4c-0.6,0.5-1,1.2-1.2,2.1c-0.2,0.9-0.1,1.7,0.3,2.4c0.4,0.7,1,1.1,1.7,1.2
			c0.8,0.1,1.5,0,2.1-0.5c0.6-0.5,1-1.1,1.2-2C181.9,309.1,181.8,308.4,181.4,307.7z"/>
		<path class="st45" d="M178.2,294.1c0.8,0.2,1.2,0.3,2,0.6c-0.1,0.2-0.2,0.4-0.2,0.5c-0.3,0.9-0.2,1.7,0.1,2.3
			c0.3,0.6,1,1.1,1.9,1.3c1.8,0.5,2.7,0.7,4.4,1.2c-0.2,0.9-0.4,1.4-0.6,2.3c-3.7-0.9-5.5-1.4-9.2-2.3c0.2-0.9,0.3-1.4,0.6-2.3
			c0.5,0.1,0.8,0.2,1.3,0.4C177.8,297.1,177.7,295.8,178.2,294.1z"/>
		<path class="st45" d="M187,284.7c-1.1,3-1.6,4.5-2.5,7.6c0.7,0.1,1.3-0.1,1.9-0.6c0.6-0.4,1-1.1,1.2-1.9c0.3-1.1,0.3-2-0.1-2.9
			c0.7-0.3,1-0.5,1.7-0.8c0.3,0.6,0.5,1.3,0.5,2s-0.1,1.5-0.4,2.3c-0.3,1-0.8,1.9-1.5,2.6c-0.6,0.7-1.4,1.1-2.2,1.4
			c-0.8,0.2-1.7,0.2-2.6,0c-0.9-0.3-1.6-0.7-2.2-1.4c-0.6-0.7-0.9-1.4-1.1-2.3c-0.2-0.9-0.1-1.9,0.2-2.8c0.3-1,0.8-1.8,1.4-2.4
			c0.6-0.6,1.4-1,2.2-1.2c0.8-0.2,1.7-0.1,2.6,0.2C186.5,284.5,186.7,284.6,187,284.7z M181.8,290.4c0.2,0.6,0.7,1.1,1.3,1.4
			c0.7-2.2,1-3.3,1.8-5.6c-0.7-0.1-1.3,0-1.9,0.4c-0.6,0.4-1,0.9-1.2,1.7C181.5,289.1,181.5,289.8,181.8,290.4z"/>
		<path class="st45" d="M186.5,270.9c2.9,1.3,4.4,1.9,7.4,3.2c3.1,1.3,3.9,3.6,2.6,6.9c-0.3,0.9-0.8,1.7-1.3,2.4
			c-0.5,0.7-1.1,1.3-1.7,1.6c-0.5-0.6-0.7-0.9-1.2-1.6c0.5-0.3,0.9-0.7,1.4-1.3c0.4-0.5,0.8-1.1,1-1.8c0.4-1,0.5-1.8,0.2-2.5
			c-0.2-0.7-0.8-1.2-1.7-1.5c-0.2-0.1-0.3-0.1-0.5-0.2c0.2,0.5,0.3,1.1,0.3,1.7c0,0.6-0.2,1.2-0.4,1.9c-0.3,0.9-0.8,1.6-1.5,2.2
			c-0.6,0.6-1.3,1-2.2,1.2c-0.8,0.2-1.6,0.1-2.5-0.2s-1.5-0.8-2-1.5c-0.5-0.7-0.8-1.4-0.8-2.3c-0.1-0.9,0.1-1.8,0.4-2.7
			c0.3-0.7,0.6-1.3,1.1-1.8c0.4-0.5,1-0.8,1.5-1.1c-0.5-0.2-0.7-0.3-1.2-0.5C186,272.2,186.2,271.8,186.5,270.9z M191.2,276.4
			c-0.2-0.7-0.7-1.2-1.5-1.5c-0.7-0.3-1.4-0.3-2.1,0.1c-0.7,0.4-1.2,1-1.5,1.8c-0.3,0.9-0.4,1.7-0.1,2.4c0.3,0.7,0.8,1.2,1.5,1.5
			c0.8,0.3,1.5,0.2,2.1-0.1c0.7-0.4,1.2-1,1.5-1.8C191.4,277.9,191.4,277.1,191.2,276.4z"/>
		<path class="st45" d="M191.9,261.5c1-0.4,2-0.4,3.2,0.3c2,1,3,1.5,4.9,2.5c-0.4,0.8-0.6,1.2-1,2c-0.4-0.2-0.6-0.3-1-0.5
			c0.2,0.4,0.3,1,0.3,1.5c0,0.6-0.2,1.2-0.5,1.9c-0.3,0.7-0.7,1.2-1.2,1.6s-0.9,0.7-1.5,0.8c-0.5,0.1-1,0.1-1.5-0.2
			c-0.8-0.3-1.3-0.9-1.4-1.8c-0.2-0.8,0-1.9,0.7-3.3c0.5-1,0.7-1.5,1.2-2.4c-0.1,0-0.1,0-0.1-0.1c-0.6-0.3-1.1-0.3-1.7-0.1
			c-0.5,0.2-0.9,0.7-1.3,1.5c-0.3,0.5-0.4,1.1-0.5,1.7c-0.1,0.6-0.1,1.1,0,1.6c-0.7,0.1-1.1,0.1-1.9,0.2c-0.1-0.7-0.1-1.4,0-2.2
			c0.1-0.8,0.4-1.6,0.8-2.4C190.1,262.8,190.9,261.9,191.9,261.5z M196.9,266.4c0-0.5-0.2-1-0.6-1.4c-0.4-0.2-0.6-0.3-1-0.5
			c-0.4,0.9-0.6,1.3-1.1,2.2c-0.6,1.3-0.5,2.1,0.3,2.4c0.4,0.2,0.7,0.1,1.1-0.1c0.4-0.2,0.7-0.6,0.9-1.1
			C196.8,267.4,196.9,266.9,196.9,266.4z"/>
		<path class="st45" d="M195,246.1c4.5,2.7,6.8,4,11.3,6.7c-0.5,0.8-0.7,1.2-1.1,2c-0.4-0.2-0.6-0.4-1.1-0.6
			c0.2,0.6,0.2,1.2,0.2,1.8c-0.1,0.6-0.3,1.2-0.6,1.8c-0.5,0.8-1.1,1.5-1.8,2c-0.7,0.5-1.5,0.8-2.4,0.8c-0.9,0.1-1.7-0.1-2.6-0.6
			c-0.8-0.4-1.5-1-1.9-1.8c-0.4-0.7-0.6-1.6-0.6-2.5s0.3-1.8,0.8-2.7c0.3-0.6,0.7-1.1,1.2-1.5c0.5-0.4,1-0.7,1.6-0.8
			c-1.7-1-2.5-1.4-4.2-2.4C194.2,247.4,194.5,247,195,246.1z M202.5,255c0-0.5-0.1-1-0.4-1.5c-0.3-0.5-0.6-0.8-1.1-1.1
			c-0.5-0.3-1-0.4-1.6-0.4c-0.5,0-1,0.2-1.5,0.5c-0.4,0.3-0.8,0.7-1.1,1.2c-0.3,0.5-0.4,1-0.4,1.6c0,0.5,0.1,1,0.4,1.5
			c0.3,0.5,0.7,0.8,1.2,1.1c0.5,0.3,1,0.4,1.6,0.4c0.5,0,1-0.2,1.4-0.5c0.4-0.3,0.8-0.7,1.1-1.2C202.4,256,202.5,255.5,202.5,255z"
			/>
		<path class="st45" d="M208.4,248.3c-0.8,0.5-1.6,0.7-2.5,0.7c-0.9,0-1.7-0.2-2.5-0.7c-0.8-0.5-1.4-1.1-1.8-1.9
			c-0.4-0.8-0.5-1.7-0.4-2.6c0.1-0.9,0.5-1.9,1-2.8c0.6-0.9,1.3-1.6,2.1-2.1c0.8-0.5,1.7-0.7,2.6-0.7c0.9,0,1.7,0.3,2.5,0.8
			c0.8,0.5,1.3,1.2,1.7,2c0.3,0.8,0.5,1.7,0.3,2.6c-0.1,0.9-0.5,1.8-1,2.7C209.9,247.2,209.2,247.9,208.4,248.3z M209.4,243
			c-0.1-0.8-0.6-1.4-1.3-1.9c-0.7-0.5-1.5-0.6-2.3-0.5c-0.8,0.2-1.4,0.7-1.9,1.4c-0.5,0.8-0.7,1.5-0.5,2.3c0.1,0.8,0.6,1.4,1.3,1.9
			s1.5,0.6,2.3,0.4c0.8-0.2,1.4-0.7,1.9-1.4C209.3,244.6,209.5,243.8,209.4,243z"/>
	</g>
</g>
<g>
	<g>
		<path class="st45" d="M362.2,104.5c1.5,3.3,2.2,5,3.6,8.3c-0.6,0.3-0.9,0.4-1.5,0.7c-0.6-1.4-0.9-2.1-1.6-3.5
			c-1.7,0.8-2.5,1.2-4.2,2.1c0.7,1.4,1,2.1,1.6,3.5c-0.6,0.3-0.9,0.5-1.5,0.8c-1.6-3.3-2.3-4.9-3.9-8.2c0.6-0.3,0.9-0.5,1.5-0.8
			c0.6,1.4,1,2,1.6,3.4c1.7-0.9,2.5-1.3,4.2-2.1c-0.6-1.4-0.9-2.1-1.5-3.4C361.3,104.9,361.6,104.8,362.2,104.5z"/>
		<path class="st45" d="M368.8,111c-0.6,0-1.2-0.3-1.7-0.6c-0.5-0.4-0.9-0.9-1.1-1.5c-0.3-0.6-0.4-1.3-0.3-1.9
			c0.1-0.6,0.3-1.2,0.7-1.7c0.4-0.5,0.9-0.9,1.6-1.2c0.7-0.3,1.3-0.4,1.9-0.4c0.6,0.1,1.2,0.3,1.7,0.6c0.5,0.4,0.9,0.9,1.1,1.5
			c0.3,0.6,0.3,1.3,0.2,1.9c-0.1,0.6-0.3,1.2-0.7,1.7c-0.4,0.5-0.9,0.9-1.5,1.2C370.1,110.9,369.4,111,368.8,111z M371.3,108.2
			c0.2-0.5,0.2-1.1-0.1-1.7c-0.2-0.6-0.6-1-1.1-1.2c-0.5-0.2-1-0.2-1.6,0.1c-0.5,0.2-0.9,0.6-1.1,1.2c-0.2,0.5-0.2,1.1,0.1,1.7
			c0.3,0.6,0.6,1,1.1,1.2c0.5,0.2,1,0.2,1.5-0.1S371.1,108.7,371.3,108.2z"/>
		<path class="st45" d="M376.5,100.4c0.2,0.6,0.3,0.9,0.5,1.4c-0.1,0-0.3,0.1-0.4,0.1c-0.6,0.2-1,0.6-1.2,1.1
			c-0.2,0.5-0.2,1,0.1,1.7c0.5,1.3,0.7,1.9,1.2,3.1c-0.6,0.2-0.9,0.4-1.5,0.6c-1-2.6-1.5-3.9-2.5-6.5c0.6-0.2,0.9-0.4,1.4-0.6
			c0.1,0.4,0.2,0.6,0.4,0.9C374.8,101.5,375.5,100.8,376.5,100.4z"/>
		<path class="st45" d="M384.1,104.6c-0.1,0.2-0.3,0.4-0.5,0.6c-0.2,0.2-0.5,0.3-0.7,0.4c-0.7,0.3-1.3,0.3-1.8,0.1
			c-0.5-0.2-0.9-0.7-1.2-1.4c-0.5-1.3-0.7-1.9-1.1-3.1c-0.4,0.2-0.6,0.2-1.1,0.4c-0.2-0.5-0.3-0.7-0.4-1.2c0.4-0.2,0.6-0.3,1.1-0.4
			c-0.2-0.6-0.3-0.9-0.5-1.5c0.6-0.2,0.9-0.4,1.5-0.6c0.2,0.6,0.3,0.9,0.5,1.5c0.7-0.3,1-0.4,1.7-0.7c0.2,0.5,0.3,0.7,0.4,1.2
			c-0.7,0.3-1,0.4-1.7,0.7c0.4,1.2,0.7,1.9,1.1,3.1c0.1,0.3,0.3,0.5,0.5,0.6c0.2,0.1,0.5,0.1,0.7,0c0.3-0.1,0.6-0.3,0.7-0.6
			C383.6,104,383.8,104.2,384.1,104.6z"/>
		<path class="st45" d="M388.1,96.9c0.7,0.3,1.1,0.9,1.4,1.9c0.5,1.6,0.7,2.3,1.2,3.9c-0.6,0.2-0.8,0.3-1.4,0.5
			c-0.1-0.3-0.2-0.5-0.3-0.8c-0.1,0.4-0.3,0.7-0.6,0.9c-0.3,0.3-0.7,0.5-1.1,0.7c-0.5,0.2-0.9,0.2-1.3,0.2c-0.4,0-0.8-0.2-1.1-0.4
			c-0.3-0.2-0.5-0.5-0.6-0.9c-0.2-0.6-0.1-1.1,0.2-1.7c0.3-0.5,0.9-0.9,1.9-1.3c0.7-0.2,1-0.4,1.7-0.6c0,0,0-0.1,0-0.1
			c-0.1-0.5-0.4-0.8-0.7-0.9c-0.4-0.2-0.8-0.1-1.3,0.1c-0.4,0.1-0.7,0.3-1,0.6c-0.3,0.2-0.6,0.5-0.7,0.8c-0.4-0.4-0.6-0.5-1-0.9
			c0.3-0.4,0.6-0.7,1-1.1c0.4-0.3,0.9-0.6,1.5-0.8C386.7,96.6,387.5,96.6,388.1,96.9z M388.2,102c0.2-0.3,0.4-0.6,0.4-1
			c-0.1-0.3-0.1-0.5-0.2-0.8c-0.6,0.2-0.9,0.3-1.6,0.5c-0.9,0.3-1.2,0.8-1,1.3c0.1,0.3,0.3,0.5,0.5,0.5c0.3,0.1,0.6,0.1,1-0.1
			C387.7,102.5,388,102.3,388.2,102z"/>
		<path class="st45" d="M393.1,101.7c-0.5,0-1,0-1.3-0.1c0.1-0.5,0.1-0.8,0.2-1.4c0.3,0.1,0.7,0.2,1.2,0.1c0.4,0,0.9-0.1,1.3-0.2
			c0.9-0.3,1.3-0.7,1.1-1.2c-0.1-0.2-0.2-0.4-0.5-0.4s-0.7,0-1.2,0.1c-0.6,0.1-1,0.1-1.4,0.1c-0.4,0-0.7-0.1-1-0.3
			c-0.3-0.2-0.6-0.5-0.7-1c-0.2-0.6-0.1-1.2,0.3-1.8c0.4-0.5,1.1-1,1.9-1.2c0.5-0.1,0.9-0.2,1.4-0.3c0.5,0,0.9,0,1.2,0.1
			c-0.1,0.5-0.2,0.8-0.3,1.4c-0.7-0.2-1.3-0.1-2,0.1c-0.5,0.1-0.8,0.3-1,0.5c-0.2,0.2-0.3,0.4-0.2,0.7c0.1,0.2,0.3,0.4,0.5,0.4
			c0.3,0,0.7,0,1.2-0.1c0.5-0.1,1-0.1,1.4-0.1c0.4,0,0.7,0.1,1,0.3c0.3,0.2,0.5,0.5,0.7,1c0.2,0.6,0.1,1.2-0.4,1.7
			c-0.4,0.5-1.1,0.9-2,1.2C394.2,101.6,393.6,101.7,393.1,101.7z"/>
		<path class="st45" d="M407.6,94.7c-2.1,0.5-3.1,0.8-5.1,1.3c0.2,0.5,0.5,0.8,1,1c0.5,0.2,1,0.2,1.5,0.1c0.7-0.2,1.2-0.6,1.6-1.2
			c0.4,0.3,0.6,0.5,1,0.8c-0.2,0.4-0.5,0.8-0.9,1.1c-0.4,0.3-0.9,0.5-1.4,0.7c-0.7,0.2-1.4,0.2-2,0.1c-0.6-0.1-1.1-0.4-1.6-0.9
			c-0.4-0.4-0.7-1-0.9-1.7c-0.2-0.7-0.2-1.3,0-1.9c0.2-0.6,0.5-1.1,0.9-1.6c0.4-0.4,1-0.7,1.7-0.9c0.6-0.2,1.3-0.2,1.8,0
			c0.6,0.2,1.1,0.5,1.5,0.9c0.4,0.5,0.7,1,0.8,1.7C407.5,94.3,407.6,94.5,407.6,94.7z M402.5,93.6c-0.3,0.4-0.4,0.8-0.3,1.4
			c1.5-0.4,2.2-0.6,3.7-1c-0.2-0.5-0.5-0.8-0.9-1c-0.4-0.2-0.9-0.3-1.4-0.1C403.1,92.9,402.8,93.2,402.5,93.6z"/>
		<path class="st45" d="M418.9,95.2c-0.9-0.9-1.3-1.4-2.3-2.3c-0.1,0-0.2,0.1-0.3,0.1c-0.8,0.2-1.2,0.2-2,0.4c0.2,1,0.3,1.6,0.5,2.6
			c-0.6,0.1-1,0.2-1.6,0.3c-0.7-3.6-1.1-5.4-1.8-8.9c1.5-0.3,2.2-0.5,3.7-0.8c0.8-0.2,1.5-0.2,2.1,0c0.6,0.1,1.1,0.4,1.5,0.9
			c0.4,0.4,0.6,1,0.8,1.6c0.1,0.7,0.1,1.3-0.2,1.8c-0.2,0.5-0.6,1-1.2,1.4c1,1,1.5,1.5,2.5,2.6C419.9,95,419.5,95.1,418.9,95.2z
			 M417,88.3c-0.4-0.2-1-0.3-1.7-0.1c-0.8,0.2-1.2,0.2-1.9,0.4c0.3,1.4,0.4,2.1,0.7,3.6c0.8-0.2,1.1-0.2,1.9-0.4
			c0.7-0.1,1.2-0.4,1.5-0.8c0.3-0.4,0.4-0.9,0.3-1.4C417.7,88.9,417.4,88.5,417,88.3z"/>
		<path class="st45" d="M427.8,90.7c-2.1,0.3-3.1,0.5-5.2,0.8c0.2,0.5,0.5,0.8,0.9,1.1c0.4,0.2,0.9,0.3,1.5,0.2
			c0.7-0.1,1.3-0.5,1.7-1c0.4,0.3,0.6,0.5,1,0.9c-0.2,0.4-0.6,0.7-1,1c-0.4,0.3-0.9,0.4-1.5,0.5c-0.7,0.1-1.4,0.1-2-0.1
			c-0.6-0.2-1.1-0.5-1.5-1c-0.4-0.5-0.6-1.1-0.8-1.7c-0.1-0.7-0.1-1.3,0.1-1.9c0.2-0.6,0.6-1.1,1-1.5c0.5-0.4,1.1-0.6,1.7-0.7
			c0.7-0.1,1.3-0.1,1.8,0.2c0.6,0.2,1,0.6,1.4,1.1c0.4,0.5,0.6,1.1,0.7,1.8C427.8,90.4,427.8,90.5,427.8,90.7z M422.8,89.2
			c-0.3,0.4-0.4,0.8-0.4,1.3c1.5-0.3,2.3-0.4,3.8-0.6c-0.1-0.5-0.4-0.9-0.8-1.1c-0.4-0.3-0.8-0.3-1.4-0.3
			C423.5,88.6,423.1,88.8,422.8,89.2z"/>
		<path class="st45" d="M430.5,85.9c0,0.2,0,0.2,0.1,0.4c0.7-0.1,1.1-0.1,1.9-0.2c0.1,0.5,0.1,0.8,0.2,1.3c-0.7,0.1-1.1,0.1-1.8,0.2
			c0.3,2.2,0.4,3.3,0.7,5.6c-0.6,0.1-0.9,0.1-1.5,0.2c-0.3-2.2-0.4-3.3-0.7-5.5c-0.4,0.1-0.7,0.1-1.1,0.2c-0.1-0.5-0.1-0.8-0.2-1.3
			c0.4-0.1,0.7-0.1,1.1-0.2c0-0.2,0-0.3-0.1-0.4c-0.1-0.7,0-1.4,0.4-1.8c0.4-0.5,0.9-0.8,1.7-0.9c0.6-0.1,1.1,0,1.5,0.2
			c-0.1,0.5-0.2,0.8-0.3,1.3c-0.3-0.2-0.6-0.2-0.9-0.2C430.7,84.8,430.4,85.2,430.5,85.9z M433.2,83.2c0.6-0.1,1-0.1,1.6-0.2
			c0.4,3.8,0.6,5.8,1.1,9.6c-0.6,0.1-0.9,0.1-1.6,0.2C433.9,89,433.6,87.1,433.2,83.2z"/>
		<path class="st45" d="M439,92c-0.6-0.3-1-0.6-1.4-1.1c-0.4-0.5-0.6-1.1-0.6-1.8c-0.1-0.7,0-1.3,0.3-1.9c0.3-0.6,0.6-1,1.2-1.4
			c0.5-0.4,1.1-0.6,1.8-0.6c0.7-0.1,1.3,0,1.9,0.3c0.6,0.3,1,0.6,1.4,1.2c0.4,0.5,0.5,1.1,0.6,1.8c0.1,0.7-0.1,1.3-0.3,1.9
			c-0.3,0.6-0.7,1-1.2,1.4c-0.5,0.3-1.1,0.5-1.8,0.6C440.2,92.3,439.6,92.2,439,92z M442.1,90.2c0.3-0.4,0.5-1,0.4-1.6
			c-0.1-0.6-0.3-1.2-0.7-1.5c-0.4-0.4-0.9-0.5-1.5-0.5s-1,0.3-1.4,0.7c-0.3,0.4-0.5,1-0.4,1.6c0.1,0.6,0.3,1.2,0.7,1.5
			s0.9,0.5,1.5,0.5S441.8,90.6,442.1,90.2z"/>
		<path class="st45" d="M449.4,84.6c0,0.6,0,0.9,0.1,1.5c-0.1,0-0.3,0-0.4,0c-0.6,0-1.1,0.2-1.4,0.6c-0.3,0.4-0.5,0.9-0.4,1.6
			c0.1,1.3,0.1,2,0.2,3.4c-0.6,0-0.9,0.1-1.6,0.1c-0.2-2.8-0.3-4.2-0.5-6.9c0.6,0,0.9-0.1,1.5-0.1c0,0.4,0,0.6,0.1,1
			C447.5,85,448.2,84.6,449.4,84.6z"/>
		<path class="st45" d="M457.2,88.4c-2.1,0-3.2,0-5.3,0.1c0.1,0.5,0.4,0.9,0.8,1.2c0.4,0.3,0.9,0.4,1.5,0.4c0.7,0,1.3-0.3,1.8-0.8
			c0.3,0.4,0.5,0.6,0.9,1c-0.3,0.4-0.7,0.7-1.1,0.9c-0.5,0.2-1,0.3-1.5,0.3c-0.7,0-1.4-0.1-2-0.4c-0.6-0.3-1-0.7-1.4-1.2
			c-0.3-0.5-0.5-1.1-0.5-1.8c0-0.7,0.1-1.3,0.4-1.8c0.3-0.6,0.7-1,1.2-1.3c0.5-0.3,1.1-0.5,1.8-0.5c0.7,0,1.3,0.1,1.8,0.4
			c0.5,0.3,1,0.7,1.3,1.2c0.3,0.5,0.5,1.2,0.5,1.9C457.2,88.1,457.2,88.2,457.2,88.4z M452.5,86.2c-0.3,0.3-0.5,0.7-0.6,1.3
			c1.5-0.1,2.3-0.1,3.8-0.1c-0.1-0.5-0.3-0.9-0.7-1.2c-0.4-0.3-0.8-0.5-1.3-0.4C453.2,85.7,452.8,85.9,452.5,86.2z"/>
		<path class="st45" d="M459.3,91.2c-0.5-0.1-0.9-0.3-1.2-0.6c0.2-0.5,0.3-0.7,0.6-1.2c0.3,0.2,0.7,0.4,1.1,0.5
			c0.4,0.1,0.8,0.2,1.3,0.2c0.9,0,1.4-0.2,1.4-0.8c0-0.2-0.1-0.4-0.4-0.5c-0.2-0.1-0.6-0.2-1.2-0.3c-0.6-0.1-1-0.2-1.4-0.3
			c-0.4-0.1-0.7-0.3-0.9-0.6c-0.3-0.3-0.4-0.7-0.4-1.2c0-0.7,0.3-1.2,0.8-1.6c0.5-0.4,1.3-0.6,2.2-0.6c0.5,0,0.9,0.1,1.4,0.2
			c0.5,0.1,0.9,0.3,1.2,0.5c-0.2,0.5-0.4,0.7-0.6,1.2c-0.6-0.4-1.2-0.5-2-0.5c-0.5,0-0.8,0.1-1.1,0.2s-0.4,0.3-0.4,0.6
			c0,0.3,0.1,0.4,0.4,0.6c0.3,0.1,0.7,0.2,1.2,0.3c0.5,0.1,1,0.2,1.3,0.3c0.3,0.1,0.6,0.3,0.9,0.6c0.2,0.3,0.4,0.7,0.4,1.2
			c0,0.7-0.3,1.2-0.8,1.5s-1.3,0.6-2.2,0.6C460.3,91.5,459.8,91.4,459.3,91.2z"/>
		<path class="st45" d="M469.3,91.2c-0.2,0.1-0.4,0.3-0.7,0.3c-0.3,0.1-0.5,0.1-0.8,0.1c-0.7,0-1.3-0.2-1.7-0.7
			c-0.4-0.4-0.6-1-0.6-1.8c0-1.3,0-2,0-3.3c-0.5,0-0.7,0-1.1,0c0-0.5,0-0.8,0-1.3c0.5,0,0.7,0,1.1,0c0-0.6,0-1,0-1.6
			c0.6,0,1,0,1.6,0.1c0,0.6,0,1,0,1.6c0.7,0,1.1,0,1.8,0.1c0,0.5,0,0.8,0,1.3c-0.7,0-1.1,0-1.8-0.1c0,1.3,0,2-0.1,3.3
			c0,0.3,0.1,0.6,0.2,0.8c0.2,0.2,0.4,0.3,0.7,0.3c0.4,0,0.6-0.1,0.9-0.2C469,90.5,469.1,90.7,469.3,91.2z"/>
		<path class="st45" d="M475.7,85.7c0.5,0.5,0.7,1.3,0.7,2.3c-0.1,1.6-0.1,2.4-0.2,4.1c-0.6,0-0.9-0.1-1.5-0.1c0-0.3,0-0.5,0-0.8
			c-0.2,0.3-0.5,0.5-0.9,0.6c-0.4,0.1-0.8,0.2-1.3,0.2c-0.5,0-0.9-0.1-1.3-0.3c-0.4-0.2-0.7-0.5-0.8-0.8c-0.2-0.3-0.3-0.7-0.3-1.1
			c0-0.6,0.3-1.1,0.7-1.5c0.5-0.4,1.2-0.5,2.2-0.4c0.7,0,1.1,0.1,1.8,0.1c0,0,0-0.1,0-0.1c0-0.5-0.1-0.9-0.4-1.1
			c-0.3-0.3-0.7-0.4-1.3-0.5c-0.4,0-0.8,0-1.1,0.1c-0.4,0.1-0.7,0.3-1,0.5c-0.2-0.5-0.4-0.7-0.6-1.2c0.4-0.3,0.8-0.4,1.3-0.6
			c0.5-0.1,1.1-0.2,1.6-0.1C474.4,84.9,475.2,85.2,475.7,85.7z M474,90.5c0.3-0.2,0.5-0.4,0.7-0.8c0-0.3,0-0.5,0-0.8
			c-0.7,0-1-0.1-1.6-0.1c-0.9-0.1-1.4,0.2-1.4,0.8c0,0.3,0.1,0.5,0.3,0.7c0.2,0.2,0.5,0.3,0.9,0.3C473.3,90.7,473.7,90.7,474,90.5z"
			/>
		<path class="st45" d="M489.3,87.1c0.4,0.6,0.6,1.4,0.5,2.4c-0.2,1.6-0.3,2.4-0.4,3.9c-0.6-0.1-0.9-0.1-1.6-0.2
			c0.2-1.5,0.2-2.2,0.4-3.7c0.1-0.6,0-1.1-0.3-1.4c-0.2-0.3-0.6-0.5-1.1-0.6c-0.5-0.1-1,0.1-1.3,0.4c-0.4,0.3-0.6,0.8-0.6,1.5
			c-0.1,1.4-0.2,2.1-0.3,3.5c-0.6-0.1-0.9-0.1-1.6-0.2c0.1-1.5,0.2-2.3,0.3-3.8c0.1-0.6,0-1.1-0.3-1.4s-0.6-0.5-1.1-0.6
			c-0.5-0.1-1,0.1-1.3,0.4c-0.3,0.3-0.5,0.8-0.6,1.5c-0.1,1.4-0.2,2.1-0.3,3.5c-0.6-0.1-0.9-0.1-1.6-0.1c0.2-2.8,0.3-4.2,0.5-6.9
			c0.6,0.1,0.9,0.1,1.5,0.1c0,0.4,0,0.5-0.1,0.9c0.3-0.3,0.6-0.5,1-0.6c0.4-0.1,0.8-0.2,1.3-0.1c0.5,0.1,1,0.2,1.3,0.4
			c0.4,0.2,0.7,0.6,0.9,1c0.3-0.3,0.7-0.6,1.2-0.7c0.5-0.1,1-0.2,1.5-0.1C488.2,86.2,488.8,86.6,489.3,87.1z"/>
		<path class="st45" d="M498,91.9c-2.1-0.4-3.2-0.6-5.3-0.9c0,0.5,0.2,1,0.6,1.3c0.4,0.4,0.8,0.6,1.4,0.7c0.7,0.1,1.4,0,1.9-0.4
			c0.3,0.5,0.4,0.7,0.7,1.1c-0.4,0.3-0.8,0.5-1.3,0.6c-0.5,0.1-1,0.1-1.6,0c-0.7-0.1-1.4-0.4-1.9-0.8c-0.5-0.4-0.9-0.9-1.1-1.5
			c-0.2-0.6-0.3-1.2-0.2-1.9c0.1-0.7,0.3-1.3,0.7-1.7c0.4-0.5,0.8-0.8,1.4-1.1c0.6-0.2,1.2-0.3,1.9-0.2c0.7,0.1,1.2,0.4,1.7,0.7
			c0.5,0.4,0.8,0.9,1,1.5c0.2,0.6,0.3,1.2,0.2,1.9C498.1,91.5,498.1,91.7,498,91.9z M493.7,88.8c-0.4,0.2-0.7,0.6-0.8,1.1
			c1.5,0.2,2.3,0.4,3.8,0.6c0-0.5-0.1-0.9-0.5-1.3c-0.3-0.4-0.7-0.6-1.2-0.7C494.5,88.5,494.1,88.5,493.7,88.8z"/>
		<path class="st45" d="M506,90.1c0.4,0.6,0.5,1.4,0.4,2.4c-0.3,1.6-0.4,2.3-0.7,3.9c-0.6-0.1-0.9-0.2-1.6-0.3
			c0.3-1.5,0.4-2.2,0.7-3.7c0.1-0.6,0-1.1-0.2-1.4c-0.2-0.4-0.6-0.6-1.1-0.7c-0.6-0.1-1.1,0-1.5,0.3c-0.4,0.3-0.6,0.8-0.8,1.4
			c-0.2,1.4-0.3,2.1-0.6,3.5c-0.6-0.1-0.9-0.2-1.6-0.3c0.4-2.7,0.6-4.1,1.1-6.8c0.6,0.1,0.9,0.2,1.5,0.3c-0.1,0.4-0.1,0.5-0.1,0.9
			c0.3-0.3,0.7-0.4,1.1-0.5c0.4-0.1,0.9-0.1,1.4,0C504.9,89.1,505.6,89.5,506,90.1z"/>
		<path class="st45" d="M511.7,97.4c-0.2,0.1-0.5,0.2-0.7,0.2c-0.3,0-0.6,0-0.8-0.1c-0.7-0.2-1.2-0.5-1.6-1
			c-0.3-0.5-0.4-1.1-0.3-1.8c0.3-1.3,0.4-2,0.6-3.3c-0.4-0.1-0.7-0.2-1.1-0.3c0.1-0.5,0.1-0.8,0.2-1.3c0.4,0.1,0.7,0.2,1.1,0.3
			c0.1-0.6,0.2-0.9,0.3-1.6c0.6,0.1,1,0.2,1.6,0.4c-0.1,0.6-0.2,0.9-0.3,1.5c0.7,0.2,1.1,0.3,1.8,0.4c-0.1,0.5-0.2,0.8-0.3,1.3
			c-0.7-0.2-1.1-0.3-1.8-0.4c-0.3,1.3-0.4,1.9-0.6,3.2c-0.1,0.3,0,0.6,0.1,0.8c0.1,0.2,0.3,0.4,0.6,0.4c0.3,0.1,0.7,0.1,0.9-0.1
			C511.6,96.6,511.6,96.9,511.7,97.4z"/>
		<path class="st45" d="M513.9,98c-0.5-0.4-0.8-1-1-1.6c-0.2-0.6-0.2-1.2-0.1-1.9c0.1-0.7,0.4-1.2,0.8-1.7c0.4-0.4,0.9-0.7,1.6-0.9
			c0.6-0.2,1.3-0.1,2,0c0.7,0.2,1.3,0.5,1.8,0.9c0.5,0.4,0.8,1,1,1.6c0.2,0.6,0.2,1.2,0,1.9c-0.2,0.7-0.5,1.2-0.9,1.6
			c-0.4,0.4-0.9,0.7-1.5,0.9c-0.6,0.1-1.2,0.1-1.9-0.1C514.9,98.7,514.4,98.4,513.9,98z M517.4,97.3c0.5-0.3,0.8-0.7,0.9-1.4
			c0.1-0.6,0.1-1.2-0.2-1.7c-0.3-0.5-0.7-0.8-1.3-1c-0.6-0.2-1.1-0.1-1.6,0.2c-0.5,0.3-0.8,0.8-0.9,1.4s-0.1,1.2,0.2,1.7
			c0.3,0.5,0.7,0.8,1.3,1C516.5,97.7,517,97.6,517.4,97.3z"/>
	</g>
</g>
</svg>
