<svg width="153" height="50" viewBox="0 0 153 50" fill="none" xmlns="http://www.w3.org/2000/svg">
<g clip-path="url(#clip0_18738_247)">
<g filter="url(#filter0_d_18738_247)">
<path d="M25 50C38.8071 50 50 38.8071 50 25C50 11.1929 38.8071 0 25 0C11.1929 0 0 11.1929 0 25C0 38.8071 11.1929 50 25 50Z" fill="#426956"/>
<path d="M26.4175 45.7853C19.6938 45.7853 7.99727 43.8751 7.08763 26.8648L11.2341 29.2677L6.74651 21.6419C6.74651 21.6419 6.57974 13.1747 9.14948 7.20134C9.14948 7.20134 38.5688 20.3684 28.6462 44.1252C28.6462 44.1252 28.7295 32.5879 19.1859 20.7247C19.1859 20.7247 25.326 32.5879 26.4858 45.6186" fill="#44B87C"/>
<path d="M30.6549 26.8723C30.6549 26.8723 35.2107 22.4757 43.0867 21.3993C43.0867 21.3993 43.7538 25.9627 42.3362 31.936L38.023 34.013L41.9193 34.0964C41.9193 34.0964 41.6692 43.1398 29.9727 45.2168C29.9727 45.2168 32.3378 41.4115 32.0497 34.013C32.0497 34.013 34.3693 30.1925 39.433 26.0461C39.433 26.0461 35.4078 28.4112 31.9663 31.8526C31.9739 31.8451 31.3372 29.0252 30.6549 26.8723Z" fill="#44B87C"/>
</g>
<path d="M59.104 27.3196C57.6107 26.5388 56.4357 25.4548 55.5867 24.0676C54.7377 22.6804 54.3132 21.1113 54.3132 19.3678C54.3132 17.6243 54.7377 16.0552 55.5867 14.668C56.4357 13.2808 57.6031 12.1968 59.104 11.416C60.5973 10.6352 62.2878 10.2411 64.1601 10.2411C66.04 10.2411 67.7229 10.6352 69.2162 11.416C70.7095 12.1968 71.8845 13.2808 72.7335 14.668C73.5825 16.0552 74.007 17.6243 74.007 19.3678C74.007 21.1113 73.5825 22.6804 72.7335 24.0676C71.8845 25.4548 70.7171 26.5388 69.2162 27.3196C67.7229 28.1004 66.0325 28.4945 64.1601 28.4945C62.2878 28.487 60.5973 28.1004 59.104 27.3196ZM66.1462 23.1883C66.7374 22.832 67.2074 22.3241 67.5561 21.6646C67.9048 21.0052 68.0791 20.2395 68.0791 19.3602C68.0791 18.4809 67.9048 17.7077 67.5561 17.0558C67.2074 16.3963 66.7374 15.896 66.1462 15.5321C65.5549 15.1759 64.8954 14.9939 64.1677 14.9939C63.44 14.9939 62.7729 15.1759 62.1892 15.5321C61.598 15.8884 61.128 16.3963 60.7793 17.0558C60.4306 17.7153 60.2562 18.4809 60.2562 19.3602C60.2562 20.2395 60.4306 21.0127 60.7793 21.6646C61.128 22.3241 61.598 22.8244 62.1892 23.1883C62.7805 23.5446 63.44 23.7265 64.1677 23.7265C64.8954 23.7265 65.5549 23.5522 66.1462 23.1883Z" fill="#44B87C"/>
<path d="M85.749 14.2056V19.1935C85.3017 19.1252 84.8848 19.0949 84.5058 19.0949C82.5804 19.0949 81.6177 20.0728 81.6177 22.0361V28.0928H75.9855V14.4557H81.3448V15.9263C82.3302 14.7817 83.8008 14.2056 85.749 14.2056Z" fill="#44B87C"/>
<path d="M102.441 14.4557V25.3714C102.441 27.9639 101.721 29.9121 100.288 31.2159C98.8478 32.5197 96.8011 33.1716 94.148 33.1716C92.7835 33.1716 91.5176 33.0276 90.3351 32.732C89.1525 32.4439 88.1519 32.0194 87.3181 31.4736L89.2132 27.638C89.7438 28.0397 90.4185 28.3581 91.2296 28.6082C92.0407 28.8584 92.8214 28.9797 93.5719 28.9797C94.7014 28.9797 95.5276 28.7371 96.0355 28.2596C96.551 27.7744 96.8087 27.0694 96.8087 26.1446V25.8945C95.9597 26.8572 94.7089 27.3423 93.0488 27.3423C91.889 27.3423 90.8051 27.0694 89.7969 26.5312C88.7887 25.993 87.9928 25.2198 87.3939 24.2116C86.7951 23.2035 86.4994 22.0588 86.4994 20.7626C86.4994 19.4663 86.7951 18.3217 87.3939 17.3211C87.9928 16.3205 88.7963 15.5549 89.7969 15.0167C90.8051 14.4785 91.889 14.2056 93.0488 14.2056C94.906 14.2056 96.2553 14.8044 97.0892 16.0021V14.4557H102.441ZM96.2023 22.3469C96.6419 21.9375 96.8618 21.4145 96.8618 20.7626C96.8618 20.1107 96.6419 19.5876 96.2023 19.1935C95.7626 18.7917 95.2092 18.5946 94.5422 18.5946C93.8599 18.5946 93.299 18.7917 92.8593 19.1935C92.4197 19.5952 92.1998 20.1183 92.1998 20.7626C92.1998 21.4069 92.4272 21.9375 92.8745 22.3469C93.3217 22.7562 93.8827 22.9609 94.5422 22.9609C95.2092 22.9533 95.7626 22.7486 96.2023 22.3469Z" fill="#44B87C"/>
<path d="M116.525 15.8126C117.791 16.8814 118.42 18.534 118.42 20.7626V28.0928H113.19V26.2962C112.546 27.6607 111.257 28.3429 109.324 28.3429C108.247 28.3429 107.323 28.1534 106.572 27.782C105.814 27.4106 105.246 26.9027 104.851 26.2583C104.457 25.6216 104.268 24.9015 104.268 24.1055C104.268 22.7562 104.783 21.7405 105.814 21.0431C106.845 20.3457 108.407 19.997 110.499 19.997H112.765C112.583 18.9357 111.727 18.4051 110.196 18.4051C109.582 18.4051 108.96 18.5036 108.323 18.6932C107.694 18.8827 107.148 19.148 106.701 19.4815L104.905 15.7671C105.685 15.282 106.625 14.9106 107.732 14.6301C108.839 14.3572 109.938 14.2207 111.037 14.2207C113.432 14.2056 115.259 14.7438 116.525 15.8126ZM112.091 24.621C112.409 24.4087 112.636 24.0828 112.788 23.6507V22.7032H111.393C110.249 22.7032 109.673 23.0822 109.673 23.8478C109.673 24.1662 109.794 24.4239 110.036 24.6361C110.279 24.8408 110.605 24.9469 111.022 24.9469C111.416 24.9469 111.772 24.8408 112.091 24.621Z" fill="#44B87C"/>
<path d="M134.657 15.7292C135.681 16.745 136.189 18.2687 136.189 20.3154V28.0928H130.556V21.2856C130.556 19.7241 130.003 18.9433 128.889 18.9433C128.26 18.9433 127.744 19.1631 127.357 19.6028C126.963 20.0425 126.774 20.7399 126.774 21.6874V28.0928H121.142V14.4557H126.501V15.805C127.032 15.2744 127.646 14.8727 128.343 14.6073C129.04 14.342 129.798 14.2056 130.609 14.2056C132.285 14.2056 133.634 14.7135 134.657 15.7292Z" fill="#44B87C"/>
<path d="M150.22 15.8126C151.486 16.8814 152.115 18.534 152.115 20.7626V28.0928H146.884V26.2962C146.24 27.6607 144.951 28.3429 143.018 28.3429C141.942 28.3429 141.017 28.1534 140.267 27.782C139.509 27.4106 138.94 26.9027 138.546 26.2583C138.152 25.6216 137.962 24.9015 137.962 24.1055C137.962 22.7562 138.478 21.7405 139.509 21.0431C140.54 20.3457 142.101 19.997 144.193 19.997H146.46C146.278 18.9357 145.421 18.4051 143.89 18.4051C143.276 18.4051 142.655 18.5036 142.018 18.6932C141.389 18.8827 140.843 19.148 140.396 19.4815L138.599 15.7671C139.38 15.282 140.32 14.9106 141.427 14.6301C142.533 14.3572 143.633 14.2207 144.732 14.2207C147.135 14.2056 148.961 14.7438 150.22 15.8126ZM145.785 24.621C146.104 24.4087 146.331 24.0828 146.483 23.6507V22.7032H145.088C143.943 22.7032 143.367 23.0822 143.367 23.8478C143.367 24.1662 143.488 24.4239 143.731 24.6361C143.974 24.8408 144.3 24.9469 144.716 24.9469C145.111 24.9469 145.467 24.8408 145.785 24.621Z" fill="#44B87C"/>
<path d="M111.659 36.1962C111.916 36.5373 112.053 36.9391 112.053 37.4166C112.053 38.1216 111.765 38.6674 111.181 39.054C110.597 39.4406 109.756 39.6377 108.649 39.6377H104.116V31.5874H108.422C109.498 31.5874 110.309 31.7769 110.855 32.1635C111.401 32.5501 111.681 33.0579 111.681 33.6947C111.681 34.0737 111.59 34.4072 111.401 34.7104C111.211 35.0061 110.938 35.2487 110.567 35.4382C111.029 35.6049 111.393 35.8627 111.659 36.1962ZM106.777 33.4824V34.6801H108.043C108.634 34.6801 108.93 34.483 108.93 34.0813C108.93 33.6795 108.634 33.4824 108.043 33.4824H106.777ZM109.309 37.1058C109.309 36.6813 109.013 36.4767 108.414 36.4767H106.777V37.7426H108.414C109.013 37.7426 109.309 37.5303 109.309 37.1058Z" fill="#426956"/>
<path d="M113.091 32.4666C112.803 32.2165 112.659 31.8981 112.659 31.5191C112.659 31.1325 112.803 30.8217 113.091 30.5716C113.379 30.3214 113.758 30.2001 114.228 30.2001C114.706 30.2001 115.085 30.3214 115.365 30.5564C115.646 30.7914 115.79 31.1022 115.79 31.4736C115.79 31.8754 115.646 32.2013 115.365 32.4591C115.085 32.7168 114.698 32.8457 114.228 32.8457C113.758 32.8381 113.379 32.7168 113.091 32.4666ZM112.925 33.346H115.525V39.6377H112.925V33.346Z" fill="#426956"/>
<path d="M118.117 39.3345C117.564 39.054 117.124 38.6674 116.813 38.1747C116.495 37.6819 116.343 37.121 116.343 36.4918C116.343 35.8626 116.502 35.3017 116.813 34.809C117.124 34.3163 117.564 33.9297 118.117 33.6492C118.67 33.3763 119.3 33.2323 119.997 33.2323C120.702 33.2323 121.331 33.3687 121.892 33.6492C122.445 33.9221 122.885 34.3087 123.196 34.809C123.507 35.3093 123.658 35.8626 123.658 36.4918C123.658 37.121 123.507 37.6819 123.196 38.1747C122.885 38.6674 122.453 39.054 121.892 39.3345C121.339 39.6149 120.702 39.7514 119.997 39.7514C119.3 39.7514 118.67 39.6149 118.117 39.3345ZM120.732 37.4015C120.922 37.1816 121.02 36.8784 121.02 36.4842C121.02 36.0901 120.922 35.7868 120.732 35.5746C120.543 35.3623 120.293 35.2562 119.997 35.2562C119.701 35.2562 119.451 35.3623 119.262 35.5746C119.072 35.7868 118.974 36.0901 118.974 36.4842C118.974 36.8784 119.072 37.1816 119.262 37.4015C119.451 37.6213 119.701 37.7274 119.997 37.7274C120.3 37.7274 120.543 37.6213 120.732 37.4015Z" fill="#426956"/>
<path d="M129.109 39.4178C128.714 39.6377 128.184 39.7514 127.509 39.7514C126.63 39.7514 125.948 39.5391 125.47 39.1146C124.992 38.6901 124.757 38.0534 124.757 37.1968V35.5898H123.893V33.6947H124.757V31.936H127.358V33.6947H128.646V35.5898H127.358V37.174C127.358 37.3636 127.411 37.5152 127.509 37.6213C127.608 37.7274 127.737 37.7805 127.903 37.7805C128.123 37.7805 128.32 37.7198 128.487 37.6061L129.109 39.4178Z" fill="#426956"/>
<path d="M136.257 37.0982H131.883C131.974 37.3332 132.126 37.5152 132.345 37.644C132.558 37.7729 132.831 37.8335 133.149 37.8335C133.422 37.8335 133.657 37.7956 133.846 37.7274C134.036 37.6592 134.24 37.5379 134.46 37.3711L135.817 38.7432C135.203 39.4178 134.286 39.7589 133.066 39.7589C132.307 39.7589 131.64 39.6225 131.064 39.342C130.488 39.0616 130.041 38.675 129.73 38.1747C129.412 37.6744 129.26 37.1134 129.26 36.4918C129.26 35.8626 129.412 35.3017 129.723 34.809C130.033 34.3163 130.458 33.9297 130.996 33.6492C131.534 33.3763 132.148 33.2323 132.823 33.2323C133.46 33.2323 134.043 33.3611 134.566 33.6113C135.089 33.8614 135.506 34.2329 135.817 34.7256C136.128 35.2183 136.28 35.802 136.28 36.4842C136.287 36.5221 136.28 36.7268 136.257 37.0982ZM132.179 35.2183C132.004 35.3623 131.891 35.5746 131.83 35.8399H133.854C133.801 35.5822 133.687 35.3775 133.505 35.2259C133.331 35.0743 133.103 34.9985 132.838 34.9985C132.58 34.9985 132.361 35.0743 132.179 35.2183Z" fill="#426956"/>
<path d="M138.576 39.342C138.015 39.0691 137.568 38.675 137.25 38.1822C136.931 37.6819 136.772 37.121 136.772 36.4918C136.772 35.8626 136.931 35.3017 137.25 34.809C137.568 34.3163 138.008 33.9297 138.576 33.6492C139.137 33.3763 139.782 33.2323 140.494 33.2323C141.26 33.2323 141.919 33.399 142.465 33.725C143.011 34.0585 143.382 34.5133 143.595 35.097L141.578 36.0901C141.336 35.5367 140.972 35.2638 140.487 35.2638C140.183 35.2638 139.926 35.3699 139.721 35.5822C139.516 35.7944 139.418 36.0976 139.418 36.4918C139.418 36.8936 139.516 37.1968 139.721 37.409C139.926 37.6213 140.176 37.7274 140.487 37.7274C140.972 37.7274 141.336 37.4545 141.578 36.9012L143.595 37.8942C143.39 38.4779 143.011 38.9327 142.465 39.2662C141.919 39.5998 141.267 39.7589 140.494 39.7589C139.774 39.7514 139.137 39.6149 138.576 39.342Z" fill="#426956"/>
<path d="M150.425 33.9297C150.895 34.3996 151.129 35.1046 151.129 36.0446V39.6377H148.529V36.4994C148.529 35.7793 148.272 35.4154 147.756 35.4154C147.468 35.4154 147.226 35.514 147.051 35.7186C146.869 35.9233 146.778 36.2417 146.778 36.6813V39.6377H144.178V31.1022H146.778V33.8539C147.264 33.4369 147.855 33.2323 148.552 33.2323C149.325 33.2323 149.955 33.4673 150.425 33.9297Z" fill="#426956"/>
</g>
<defs>
<filter id="filter0_d_18738_247" x="-4" y="0" width="58" height="58" filterUnits="userSpaceOnUse" color-interpolation-filters="sRGB">
<feFlood flood-opacity="0" result="BackgroundImageFix"/>
<feColorMatrix in="SourceAlpha" type="matrix" values="0 0 0 0 0 0 0 0 0 0 0 0 0 0 0 0 0 0 127 0" result="hardAlpha"/>
<feOffset dy="4"/>
<feGaussianBlur stdDeviation="2"/>
<feComposite in2="hardAlpha" operator="out"/>
<feColorMatrix type="matrix" values="0 0 0 0 0 0 0 0 0 0 0 0 0 0 0 0 0 0 0.25 0"/>
<feBlend mode="normal" in2="BackgroundImageFix" result="effect1_dropShadow_18738_247"/>
<feBlend mode="normal" in="SourceGraphic" in2="effect1_dropShadow_18738_247" result="shape"/>
</filter>
<clipPath id="clip0_18738_247">
<rect width="152.115" height="50" fill="white"/>
</clipPath>
</defs>
</svg>
