<svg id="Camada_1" xmlns="http://www.w3.org/2000/svg" xmlns:xlink="http://www.w3.org/1999/xlink" x="0px" y="0px"
	 viewBox="0 0 151.5 50" style="enable-background:new 0 0 151.5 50;" xml:space="preserve">
<style type="text/css">
	.st0{fill:#426956;}
	.st1{fill:#44B87C;}
</style>
<circle class="st0" cx="25" cy="25" r="25"/>
<path class="st1" d="M26.4,45.8c-6.7,0-18.4-1.9-19.3-18.9l4.1,2.4l-4.5-7.6c0,0-0.2-8.5,2.4-14.4c0,0,29.4,13.2,19.5,36.9
	c0,0,0.1-11.5-9.5-23.4c0,0,6.1,11.9,7.3,24.9"/>
<path class="st1" d="M30.7,26.9c0,0,4.6-4.4,12.4-5.5c0,0,0.7,4.6-0.7,10.5L38,34l3.9,0.1c0,0-0.2,9-11.9,11.1c0,0,2.4-3.8,2.1-11.2
	c0,0,2.3-3.8,7.4-8c0,0-4,2.4-7.5,5.8C32,31.8,31.3,29,30.7,26.9z"/>
<path class="st1" d="M58.5,27.3c-1.5-0.8-2.7-1.9-3.5-3.3c-0.8-1.4-1.3-3-1.3-4.7c0-1.7,0.4-3.3,1.3-4.7s2-2.5,3.5-3.3
	c1.5-0.8,3.2-1.2,5.1-1.2c1.9,0,3.6,0.4,5.1,1.2c1.5,0.8,2.7,1.9,3.5,3.3s1.3,3,1.3,4.7c0,1.7-0.4,3.3-1.3,4.7
	c-0.8,1.4-2,2.5-3.5,3.2c-1.5,0.8-3.2,1.2-5.1,1.2C61.7,28.5,60,28.1,58.5,27.3z M65.6,23.2c0.6-0.4,1.1-0.9,1.4-1.5
	c0.3-0.7,0.5-1.4,0.5-2.3s-0.2-1.6-0.5-2.3c-0.3-0.6-0.8-1.1-1.4-1.5c-0.6-0.4-1.3-0.5-2-0.5c-0.7,0-1.4,0.2-2,0.5
	c-0.6,0.4-1.1,0.9-1.4,1.5c-0.3,0.7-0.5,1.4-0.5,2.3c0,0.9,0.2,1.6,0.5,2.3c0.3,0.6,0.8,1.1,1.4,1.5c0.6,0.4,1.3,0.5,2,0.5
	C64.3,23.7,65,23.5,65.6,23.2z"/>
<path class="st1" d="M85.2,14.2v5c-0.4-0.1-0.8-0.1-1.2-0.1c-1.9,0-2.9,1-2.9,2.9v6.1h-5.6V14.5h5.4v1.5
	C81.7,14.8,83.2,14.2,85.2,14.2z"/>
<path class="st1" d="M101.9,14.5v10.9c0,2.6-0.7,4.5-2.2,5.8c-1.4,1.3-3.5,2-6.1,2c-1.3,0-2.6-0.1-3.8-0.4c-1.2-0.3-2.2-0.7-3-1.3
	l1.9-3.8c0.5,0.4,1.2,0.7,2,1c0.8,0.2,1.5,0.4,2.3,0.4c1.1,0,2-0.2,2.5-0.7c0.5-0.5,0.8-1.2,0.8-2.1v-0.2c-0.8,1-2.1,1.4-3.8,1.4
	c-1.1,0-2.3-0.3-3.3-0.8c-1-0.5-1.8-1.3-2.4-2.3c-0.6-1-0.9-2.2-0.9-3.5c0-1.3,0.3-2.4,0.9-3.4c0.6-1,1.4-1.8,2.4-2.3
	c1-0.5,2.1-0.8,3.3-0.8c1.9,0,3.2,0.6,4,1.8v-1.5L101.9,14.5z M95.6,22.3c0.4-0.4,0.7-0.9,0.7-1.6c0-0.7-0.2-1.2-0.7-1.6
	c-0.4-0.4-1-0.6-1.7-0.6c-0.7,0-1.2,0.2-1.7,0.6c-0.4,0.4-0.7,0.9-0.7,1.6c0,0.6,0.2,1.2,0.7,1.6c0.4,0.4,1,0.6,1.7,0.6
	C94.6,22.9,95.2,22.7,95.6,22.3L95.6,22.3z"/>
<path class="st1" d="M115.9,15.8c1.3,1.1,1.9,2.7,1.9,4.9v7.3h-5.2v-1.8c-0.6,1.4-1.9,2-3.9,2c-1.1,0-2-0.2-2.8-0.6
	c-0.8-0.4-1.3-0.9-1.7-1.5c-0.4-0.6-0.6-1.4-0.6-2.2c0-1.3,0.5-2.4,1.5-3.1c1-0.7,2.6-1,4.7-1h2.3c-0.2-1.1-1-1.6-2.6-1.6
	c-0.6,0-1.3,0.1-1.9,0.3c-0.6,0.2-1.1,0.4-1.6,0.8l-1.8-3.7c0.8-0.5,1.7-0.9,2.8-1.1c1.1-0.3,2.2-0.4,3.3-0.4
	C112.8,14.2,114.7,14.7,115.9,15.8z M111.5,24.6c0.3-0.2,0.5-0.5,0.7-1v-0.9h-1.4c-1.1,0-1.7,0.4-1.7,1.1c0,0.3,0.1,0.6,0.4,0.8
	c0.2,0.2,0.6,0.3,1,0.3C110.8,24.9,111.2,24.8,111.5,24.6L111.5,24.6z"/>
<path class="st1" d="M134.1,15.7c1,1,1.5,2.5,1.5,4.6v7.8H130v-6.8c0-1.6-0.6-2.3-1.7-2.3c-0.6,0-1.1,0.2-1.5,0.7
	c-0.4,0.4-0.6,1.1-0.6,2.1v6.4h-5.6V14.5h5.4v1.3c0.5-0.5,1.2-0.9,1.8-1.2c0.7-0.3,1.5-0.4,2.3-0.4C131.7,14.2,133,14.7,134.1,15.7z
	"/>
<path class="st1" d="M149.6,15.8c1.3,1.1,1.9,2.7,1.9,4.9v7.3h-5.2v-1.8c-0.6,1.4-1.9,2-3.9,2c-1.1,0-2-0.2-2.8-0.6
	c-0.8-0.4-1.3-0.9-1.7-1.5c-0.4-0.6-0.6-1.4-0.6-2.2c0-1.3,0.5-2.4,1.5-3.1c1-0.7,2.6-1,4.7-1h2.3c-0.2-1.1-1-1.6-2.6-1.6
	c-0.6,0-1.3,0.1-1.9,0.3c-0.6,0.2-1.1,0.4-1.6,0.8l-1.8-3.7c0.8-0.5,1.7-0.9,2.8-1.1c1.1-0.3,2.2-0.4,3.3-0.4
	C146.5,14.2,148.4,14.7,149.6,15.8z M145.2,24.6c0.3-0.2,0.5-0.5,0.7-1v-0.9h-1.4c-1.1,0-1.7,0.4-1.7,1.1c0,0.3,0.1,0.6,0.4,0.8
	c0.2,0.2,0.6,0.3,1,0.3C144.5,24.9,144.9,24.8,145.2,24.6z"/>
<path class="st0" d="M111.1,36.2c0.3,0.4,0.4,0.8,0.4,1.2c0,0.7-0.3,1.3-0.9,1.6c-0.6,0.4-1.4,0.6-2.5,0.6h-4.5v-8.1h4.3
	c1.1,0,1.9,0.2,2.4,0.6c0.5,0.4,0.8,0.9,0.8,1.5c0,0.4-0.1,0.7-0.3,1c-0.2,0.3-0.5,0.6-0.8,0.7C110.4,35.6,110.8,35.8,111.1,36.2z
	 M106.2,33.5v1.2h1.3c0.6,0,0.9-0.2,0.9-0.6s-0.3-0.6-0.9-0.6L106.2,33.5z M108.7,37.1c0-0.4-0.3-0.6-0.9-0.6h-1.6v1.3h1.6
	C108.4,37.7,108.7,37.5,108.7,37.1L108.7,37.1z"/>
<path class="st0" d="M112.5,32.5c-0.5-0.5-0.6-1.3-0.1-1.8c0,0,0.1-0.1,0.1-0.1c0.3-0.2,0.7-0.4,1.1-0.4c0.5,0,0.9,0.1,1.1,0.4
	c0.3,0.2,0.4,0.6,0.4,0.9c0,0.4-0.1,0.7-0.4,1c-0.3,0.3-0.7,0.4-1.1,0.4C113.2,32.8,112.8,32.7,112.5,32.5z M112.3,33.3h2.6v6.3
	h-2.6V33.3z"/>
<path class="st0" d="M117.5,39.3c-0.5-0.3-1-0.7-1.3-1.2c-0.6-1-0.6-2.3,0-3.4c0.3-0.5,0.8-0.9,1.3-1.2c1.2-0.6,2.6-0.6,3.8,0
	c0.5,0.3,1,0.7,1.3,1.2c0.6,1,0.6,2.3,0,3.4c-0.3,0.5-0.8,0.9-1.3,1.2C120.1,39.9,118.7,39.9,117.5,39.3L117.5,39.3z M120.1,37.4
	c0.2-0.2,0.3-0.5,0.3-0.9c0-0.4-0.1-0.7-0.3-0.9c-0.4-0.4-1-0.4-1.4-0.1c0,0,0,0-0.1,0.1c-0.2,0.2-0.3,0.5-0.3,0.9
	c0,0.4,0.1,0.7,0.3,0.9C119,37.8,119.7,37.8,120.1,37.4C120.1,37.4,120.1,37.4,120.1,37.4z"/>
<path class="st0" d="M128.5,39.4c-0.4,0.2-0.9,0.3-1.6,0.3c-0.9,0-1.6-0.2-2-0.6c-0.5-0.4-0.7-1.1-0.7-1.9v-1.6h-0.9v-1.9h0.9v-1.8
	h2.6v1.8h1.3v1.9h-1.3v1.6c0,0.2,0,0.3,0.2,0.4c0.1,0.1,0.2,0.2,0.4,0.2c0.2,0,0.4-0.1,0.6-0.2L128.5,39.4z"/>
<path class="st0" d="M135.7,37.1h-4.4c0.1,0.2,0.2,0.4,0.5,0.5c0.2,0.1,0.5,0.2,0.8,0.2c0.2,0,0.5,0,0.7-0.1
	c0.2-0.1,0.4-0.2,0.6-0.4l1.4,1.4c-0.6,0.7-1.5,1-2.8,1c-0.8,0-1.4-0.1-2-0.4c-0.5-0.3-1-0.7-1.3-1.2c-0.6-1-0.6-2.3,0-3.4
	c0.3-0.5,0.8-0.9,1.3-1.2c1.1-0.5,2.4-0.6,3.6,0c0.5,0.2,1,0.6,1.3,1.1c0.3,0.5,0.5,1.1,0.5,1.8C135.7,36.5,135.7,36.7,135.7,37.1z
	 M131.6,35.2c-0.2,0.2-0.3,0.4-0.3,0.6h2c0-0.2-0.2-0.5-0.3-0.6c-0.2-0.2-0.4-0.2-0.7-0.2C132,35,131.8,35.1,131.6,35.2z"/>
<path class="st0" d="M138,39.3c-0.5-0.3-1-0.7-1.3-1.2c-0.6-1-0.6-2.3,0-3.4c0.3-0.5,0.8-0.9,1.3-1.2c0.6-0.3,1.3-0.4,1.9-0.4
	c0.8,0,1.4,0.2,2,0.5c0.5,0.3,0.9,0.8,1.1,1.4l-2,1c-0.2-0.6-0.6-0.8-1.1-0.8c-0.3,0-0.6,0.1-0.8,0.3c-0.2,0.2-0.3,0.5-0.3,0.9
	c0,0.4,0.1,0.7,0.3,0.9c0.2,0.2,0.5,0.3,0.8,0.3c0.5,0,0.8-0.3,1.1-0.8l2,1c-0.2,0.6-0.6,1.1-1.1,1.4c-0.5,0.3-1.2,0.5-2,0.5
	C139.2,39.8,138.6,39.6,138,39.3z"/>
<path class="st0" d="M149.8,33.9c0.5,0.5,0.7,1.2,0.7,2.1v3.6h-2.6v-3.1c0-0.7-0.3-1.1-0.8-1.1c-0.3,0-0.5,0.1-0.7,0.3
	c-0.2,0.2-0.3,0.5-0.3,1v3h-2.6v-8.5h2.6v2.7c0.5-0.4,1.1-0.6,1.8-0.6C148.7,33.2,149.4,33.5,149.8,33.9z"/>
</svg>
