<?xml version="1.0" encoding="utf-8"?>
<!-- Generator: Adobe Illustrator 24.3.0, SVG Export Plug-In . SVG Version: 6.00 Build 0)  -->
<svg version="1.1" id="Camada_1" xmlns="http://www.w3.org/2000/svg" xmlns:xlink="http://www.w3.org/1999/xlink" x="0px" y="0px"
	 viewBox="0 0 574.9 685.1" style="enable-background:new 0 0 574.9 685.1;" xml:space="preserve">
<style type="text/css">
	.st0{fill:#E6E6E6;}
	.st1{fill:#3F3D56;}
	.st2{fill:#F0F0F0;}
	.st3{fill:#A0616A;}
	.st4{fill:#2F2E41;}
	.st5{fill:#CACACA;}
	.st6{fill:#01BF71;}
	.st7{fill:#FF6584;}
</style>
<path class="st0" d="M150.5,371.7l0.3-0.8c19-11.8-20-147,84.8-106.9c46.3,13.6,93.8,85.3,93.8,135.8c0,5.2-5.1,12-1.3,15.4
	c41.3,36.8,12.8,60.5,3.8,84.2c-2.1,5.6,2.5,11.8,2.5,17.9c0,1,0,2.1-0.1,3.2l-0.1,1.6l-1.4-0.9c-2.7-1.8-5.2-3.9-7.5-6.2
	c4.8,11,4.3,23.6-1.3,34.3c-4.3,8.2-8.5,14-12.4,17.4c-26.1,22.3-65.1,20.5-89-4.3l0,0c-11.4-11.8-28-18.6-45.5-18.6l-0.7,0
	c-11.5,0-22.8-3-32.7-8.8l-1-0.6l0.8-0.9c4.5-4.7,8.3-10,11.2-15.8c-4.2,3.9-9.8,5.7-15.4,5c-6-0.7-11.3-4.1-14.4-9.2
	c-6.1-9.9-13.4-24-13.4-34.7c0-18.3,7.7-35.7,21.3-48.1c8.6-7.7,13.4-18.7,13.4-30.2l0-0.8c0-7.5,0.9-15,2.7-22.3l0.2-0.7
	L150.5,371.7z"/>
<path class="st0" d="M-62.7,452.8"/>
<path class="st1" d="M291.8,685.1c0.6,0,1.1-0.4,1.2-1c0-0.3,4.9-35.4,0.5-82.1c-4-43.1-17-105.1-55.8-156c-0.4-0.5-1.1-0.6-1.6-0.2
	c-0.5,0.4-0.6,1.1-0.2,1.6c0,0,0,0,0,0c38.5,50.5,51.3,112.1,55.3,154.8c4.3,46.4-0.5,81.2-0.5,81.5c-0.1,0.6,0.4,1.2,1,1.3
	C291.6,685.1,291.7,685.1,291.8,685.1L291.8,685.1z"/>
<path class="st1" d="M260.1,517.9c0.6,0,1.2-0.5,1.2-1.2c0-0.4-0.2-0.7-0.5-0.9c-11.1-7.5-23-13.6-35.6-18.1
	c-19.6-7.2-49.5-13.7-80.2-3.9c-0.6,0.2-1,0.8-0.8,1.5c0.2,0.6,0.8,1,1.5,0.8c0,0,0,0,0,0c30.1-9.6,59.4-3.2,78.7,3.9
	c12.4,4.5,24.1,10.4,35,17.8C259.6,517.8,259.8,517.9,260.1,517.9z"/>
<path class="st1" d="M313.6,384.7c0-0.6-0.4-1.2-1.1-1.3c-0.4,0-0.7,0.1-1,0.4c-8.3,10.5-15.2,22-20.6,34.2
	c-8.6,19.1-17.2,48.3-9.7,79.7c0.1,0.6,0.8,1,1.4,0.9c0.6-0.1,1-0.8,0.9-1.4c0,0,0,0,0,0c-7.4-30.7,1.1-59.5,9.5-78.2
	c5.3-12,12.1-23.3,20.3-33.6C313.5,385.1,313.6,384.9,313.6,384.7z"/>
<path class="st2" d="M539,683.9h-93l-0.4-0.7c-1.2-2.2-2.3-4.4-3.4-6.8c-9.6-20.5-13.6-44-17.2-64.7l-2.7-15.6
	c-0.9-5.2,2.6-10.2,7.9-11.1c2.6-0.4,5.2,0.2,7.3,1.7c14.1,10.3,28.3,20.6,42.4,30.8c5.4,3.9,11.5,8.4,17.3,13.3
	c0.6-2.7,1.2-5.5,1.7-8.2c1.1-5.2,6.3-8.5,11.5-7.4c2.5,0.6,4.8,2.1,6.1,4.3l10.9,17.5c7.9,12.8,14.9,25.4,13.5,38.9
	c0,0.2,0,0.3,0,0.5c-0.3,2.2-0.8,4.4-1.6,6.5L539,683.9z"/>
<path class="st3" d="M495.7,318.1l-18-66.5c-1.6-5.9-7.6-9.3-13.5-7.8l0,0c-5.9,1.5-9.5,7.6-8,13.5c0,0.2,0.1,0.4,0.2,0.6l20.8,68.5
	l10.9,42.1c-4.3,3.3-5.1,9.3-1.8,13.6c3.3,4.3,9.3,5.1,13.6,1.8c4.3-3.3,5.1-9.3,1.8-13.6c-0.3-0.5-0.7-0.9-1.2-1.3L495.7,318.1z"/>
<path class="st3" d="M344.6,303.8l54.6-42c4.8-3.7,5.7-10.6,2.1-15.5l0,0c-3.7-4.9-10.6-5.9-15.6-2.2c-0.2,0.1-0.3,0.2-0.5,0.4
	l-55.3,45.4L295.1,316c-4.6-2.7-10.6-1.1-13.3,3.5c-2.7,4.6-1.1,10.6,3.5,13.3s10.6,1.1,13.3-3.5c0.3-0.5,0.5-1,0.7-1.6L344.6,303.8
	z"/>
<path class="st3" d="M389,313.4l-2.4,53.7l75.5-16.4c-6.4-21.6-10.8-25.3-6-40.3L389,313.4z"/>
<path class="st0" d="M435.5,214.9h-25.2l-10.8,18.5l-5.1-0.3c-10.2-0.6-19,7.3-19.5,17.5c0,0.3,0,0.7,0,1l0,0l6.3,9.8
	c0,0-11.3,19.8,5,29.5c0,0-2.9,18.3,0,18.1s9.6-3.9,2.9-0.2s-6.2,4.2-5.3,5.1l0.9,0.9l70.6,11.9c0,0,2.1-13.7,2.3-16.1
	s-1.3,3.5,0.2-2.4s3.7-3.7,1.5-6s14.5-30,7.6-40.7l11-10.8l0,0c0-10.3-16.6-18.7-26.9-18.7h-1.3L435.5,214.9z"/>
<polygon class="st3" points="374.9,663.2 364.7,663.2 359.8,623.9 374.9,623.9 "/>
<path class="st4" d="M344.1,678.2c0,2.4,1.9,4.3,4.3,4.3h19.2l0.6-1.2l2.7-5.6l1.1,5.6l0.2,1.2h7.2l-0.1-1.2l-1.9-23.1l-2.5-0.2
	l-10.9-0.6l-2.7-0.2v6.9C359.2,666.3,343.3,674.4,344.1,678.2z"/>
<polygon class="st3" points="526.2,636.5 517.6,642 492.3,611.6 505,603.5 "/>
<path class="st4" d="M508.5,665.8c1.3,2,3.9,2.6,6,1.3l16.1-10.4l-0.2-1.4l-0.7-6.2l3.9,4.1l0.9,0.9l6.1-3.9l-0.8-1l-14.1-18.4
	l-2.2,1.2l-9.5,5.4l-2.3,1.3l3.7,5.8C514.8,647.5,505.8,663,508.5,665.8z"/>
<path class="st5" d="M573.7,684.6l-315.4,0.3c-0.7,0-1.2-0.5-1.2-1.2c0-0.7,0.5-1.2,1.2-1.2l315.4-0.3c0.7,0,1.2,0.5,1.2,1.2
	C574.9,684.1,574.4,684.6,573.7,684.6z"/>
<path class="st4" d="M461,344.6c0,0-48.3,25.5-73.8,8.1c0,0-5.6,27-7.8,29.3s-5.8,3.2-3.3,5.7s3.9,5.9-0.9,10.2s-9.6,2.9-5,7.3
	s-14,112.6-14,112.6s3,100.6,0,103.6s-7,3.7-3.1,7.5s3.9,0.8,3.9,6v5.2l1.8,5.2H383c0,0,5.8-6.8,0-12.7c-5.8-5.9,1.8-7.5,3.6-13
	s4.8,0.4,1.8-5.5c-3-6-4.4-4.8-4.4-8.8s44-157.6,44-157.6l5.3,85.1l64.1,93.2l18.9-14.2c0,0-13.7-19.3-10.5-22s-9.5-6-5.5-9
	s-5.6-6-2-10c3.6-4-5-14-10-14s-12-16.7-12-16.7l10.5-132L461,344.6z"/>
<path class="st4" d="M409.8,160.6c-0.3,0.4-3.1,0.2-6.3-0.3c-6.5-0.9-7.4,0.2-12.2,4.6c-7,6.4-3,45.3-6.5,53.7l-1.1,0.8
	c2.2-0.4,4.4-1,6.5-1.8c1.2-3.8,2.4-7.5,3.6-11.3c1.1,2.9,1.8,6,2.1,9.1c1.7-0.7,3.3-2.3,10.3-4.4c3.5-2.4,28.9-4.8,32.1-5.8
	C446.6,177.1,433.2,165.7,409.8,160.6z"/>
<circle class="st3" cx="418.4" cy="179.8" r="24.2"/>
<path class="st4" d="M433.6,158.5c-1.4-0.2-2.7-0.7-3.9-1.4c-1.2-0.7-1.9-2.1-1.8-3.5c0.3-1.7,2.2-2.7,4-2.6
	c1.7,0.3,3.4,0.9,4.8,1.9c-0.3-3.4-2.9-6.2-6.3-6.7c2.3-0.1,4.7-0.2,6.8,0.6s3.9,3.1,3.5,5.3c3.6-0.5,7.1,2,8.6,5.3s1.2,7.1,0,10.5
	c-0.2,1.1-0.9,2-1.9,2.5c-1.2,0.5-2.5-0.3-3.5-1.1c-5.4-3.9-10.4-8.5-14.7-13.6"/>
<path class="st4" d="M444.2,205.6c-1,0.5-0.5,2.3-1.3,3.1c-0.3,0.3-0.8,0.6-1.2,0.8c-0.1-1.5-0.5-3-1-4.4c-0.1-0.3-0.3-0.5-0.5-0.5
	c-0.3,0-0.4,0.4-0.4,0.8c-0.1,1.5-0.4,3-1,4.4c0,0,0,0,0,0.1c-0.2,0-0.5,0-0.7,0c-1.7-0.1-5.6-4.5-6.4-3c3-5.3,6.7-13.3,7.2-19.4
	c0.2-1.3,0.1-2.6-0.3-3.8c-0.4-1.3-1.5-2.2-2.8-2.3c-1.2-0.1-2.2,0.9-2.2,2c0,0.1,0,0.3,0,0.4l-0.4-0.1c-4-3.3-0.6-8.9-5.2-11.2
	c-1.6-0.8-11.3,1.8-13,1.3c0-1.8-0.4-3.6-1.1-5.2c-0.1-0.3-0.3-0.5-0.5-0.5c-0.3,0-0.4,0.4-0.4,0.8c-0.1,1.5-0.4,3-1,4.4
	c-2.4-0.3-4.8-0.2-7.1,0.4c-2,0.5-4,1.5-6,2c-2,0.6-4.3,0.4-6.1-0.7c-2.6-1.7-3.1-5.6-1.8-8.5c0.9-1.8,2.2-3.5,3.7-4.8
	c1.2-1.1,2.4-2.2,3.6-3.3c1.1-1,2.2-2,3.3-2.9c1.4-1.3,2.8-2.5,4.4-3.6c5-3.3,11.1-4.3,16.8-2.9c3.4,0.8,8-0.3,11.2,1.3
	c1.6,0.8,5.3,4.1,6.7,5.2c3.7,2.9,1.2,0.5,5.2,2.2C455.4,161.5,451.1,202.3,444.2,205.6z"/>
<path class="st6" d="M175.9,383.9c-83.7,0-151.8-68.1-151.8-151.8S92.2,80.4,175.9,80.4s151.8,68.1,151.8,151.8
	S259.6,383.9,175.9,383.9z M175.9,83.4c-82,0-148.8,66.7-148.8,148.8s66.7,148.8,148.8,148.8s148.8-66.7,148.8-148.8
	S257.9,83.4,175.9,83.4z"/>
<path class="st6" d="M155.4,310.4c-5.3,0-10.2-2.5-13.4-6.7L101,249c-5.5-7.4-4-17.9,3.3-23.4s17.9-4,23.4,3.3l26.8,35.8l68.9-103.3
	c5.1-7.7,15.5-9.7,23.2-4.6c7.7,5.1,9.7,15.5,4.6,23.2l-82,123c-3,4.5-8,7.3-13.4,7.4C155.7,310.4,155.6,310.4,155.4,310.4z"/>
<ellipse transform="matrix(0.144 -0.9896 0.9896 0.144 187.4438 397.087)" class="st0" cx="323.2" cy="90.2" rx="5.3" ry="7.6"/>
<ellipse transform="matrix(0.144 -0.9896 0.9896 0.144 234.283 441.6387)" class="st1" cx="372.4" cy="85.4" rx="5.3" ry="7.6"/>
<ellipse transform="matrix(0.144 -0.9896 0.9896 0.144 215.3107 349.6859)" class="st7" cx="309.8" cy="50.4" rx="5.3" ry="7.6"/>
<ellipse transform="matrix(7.561574e-03 -1 1 7.561574e-03 255.2095 327.4414)" class="st0" cx="292.6" cy="35.1" rx="4.8" ry="3.3"/>
<ellipse transform="matrix(7.561574e-03 -1 1 7.561574e-03 278.3893 290.054)" class="st1" cx="285.3" cy="4.8" rx="4.8" ry="3.3"/>
<ellipse transform="matrix(7.561574e-03 -1 1 7.561574e-03 280.8581 399.4452)" class="st0" cx="341.7" cy="58.2" rx="4.8" ry="3.3"/>
<ellipse transform="matrix(7.561574e-03 -1 1 7.561574e-03 245.4122 387.4584)" class="st7" cx="317.9" cy="70.1" rx="4.8" ry="3.3"/>
<ellipse transform="matrix(7.561574e-03 -1 1 7.561574e-03 256.3123 442.2967)" class="st1" cx="351" cy="92" rx="4.8" ry="3.3"/>
<ellipse transform="matrix(0.144 -0.9896 0.9896 0.144 -406.2444 422.7682)" class="st0" cx="41.2" cy="446.2" rx="5.3" ry="7.6"/>
<ellipse transform="matrix(0.144 -0.9896 0.9896 0.144 -359.4045 467.3202)" class="st1" cx="90.4" cy="441.4" rx="5.3" ry="7.6"/>
<ellipse transform="matrix(0.144 -0.9896 0.9896 0.144 -378.377 375.3673)" class="st7" cx="27.8" cy="406.4" rx="5.3" ry="7.6"/>
<ellipse transform="matrix(7.561574e-03 -1 1 7.561574e-03 -380.648 398.7575)" class="st0" cx="10.6" cy="391.1" rx="4.8" ry="3.3"/>
<ellipse transform="matrix(7.561574e-03 -1 1 7.561574e-03 -357.4681 361.37)" class="st1" cx="3.3" cy="360.8" rx="4.8" ry="3.3"/>
<ellipse transform="matrix(7.561574e-03 -1 1 7.561574e-03 -354.9995 470.7613)" class="st0" cx="59.7" cy="414.2" rx="4.8" ry="3.3"/>
<ellipse transform="matrix(7.561574e-03 -1 1 7.561574e-03 -390.4453 458.7745)" class="st7" cx="35.9" cy="426.1" rx="4.8" ry="3.3"/>
<ellipse transform="matrix(7.561574e-03 -1 1 7.561574e-03 -379.5452 513.6127)" class="st1" cx="69" cy="448" rx="4.8" ry="3.3"/>
</svg>
